<svg width="20" height="20" viewBox="0 0 20 20" fill="none" xmlns="http://www.w3.org/2000/svg">
<path fill-rule="evenodd" clip-rule="evenodd" d="M8.07585 1.33062C6.86158 1.85424 6.30819 2.39448 5.78765 3.5646C5.44156 4.34267 5.28326 4.44194 4.16802 4.58098C3.48841 4.6658 2.51454 5.0017 2.00374 5.32749C0.926469 6.01495 -0.00815604 7.65567 5.36807e-05 8.84507C0.00800684 9.99953 0.805375 11.5277 1.77027 12.2366C2.50273 12.7752 2.55712 12.901 2.31545 13.4983C1.63507 15.1793 2.45399 17.3533 4.16931 18.4193C5.55649 19.2814 7.63766 19.3178 9.03895 18.5043L10 17.9465L10.9611 18.5043C12.3623 19.3178 14.4435 19.2814 15.8307 18.4193C17.546 17.3533 18.3649 15.1793 17.6846 13.4983C17.4429 12.901 17.4973 12.7752 18.2297 12.2366C19.1946 11.5277 19.992 9.99953 19.9999 8.84507C20.0082 7.65567 19.0735 6.01495 17.9963 5.32749C17.4855 5.0017 16.5116 4.6658 15.832 4.58098C14.7167 4.44194 14.5584 4.34267 14.2124 3.5646C13.6918 2.39448 13.1384 1.85424 11.9242 1.33062C10.6211 0.768698 9.37888 0.768698 8.07585 1.33062ZM11.0262 7.38339C11.0262 8.31109 11.1237 9.07013 11.2425 9.07013C11.3615 9.07013 12.1302 8.85326 12.9504 8.5882C13.7706 8.32314 14.4702 8.10628 14.5048 8.10628C14.5928 8.10628 15.1311 9.58073 15.1311 9.82218C15.1311 9.93133 14.4671 10.1983 13.6559 10.4154C12.8444 10.6325 12.0812 10.8971 11.9596 11.0034C11.8377 11.1096 12.2125 11.7754 12.7921 12.4827L13.8457 13.7689L13.1415 14.3099C12.7541 14.6075 12.3557 14.8513 12.2556 14.852C12.1558 14.8528 11.6363 14.261 11.1011 13.5371C10.5662 12.8133 10.0706 12.221 10 12.221C9.92945 12.221 9.43379 12.8133 8.89887 13.5371C8.3637 14.261 7.84418 14.8528 7.74438 14.852C7.64433 14.8513 7.2459 14.6075 6.8585 14.3099L6.15426 13.7689L7.19279 12.5014C7.76388 11.8043 8.17308 11.1455 8.10176 11.0371C8.03044 10.9287 7.27386 10.6417 6.42056 10.3988C5.56701 10.1562 4.86893 9.88266 4.86893 9.79085C4.86893 9.57182 5.41385 8.10628 5.49518 8.10628C5.52981 8.10628 6.22943 8.32314 7.04963 8.5882C7.86984 8.85326 8.63847 9.07013 8.75751 9.07013C8.8763 9.07013 8.97379 8.31109 8.97379 7.38339V5.69664H10H11.0262V7.38339Z" fill="#9AA1AE"/>
</svg>
