<svg width="22" height="22" viewBox="0 0 22 22" fill="none" xmlns="http://www.w3.org/2000/svg">
<path d="M11 0C4.9346 0 0 4.9346 0 11C0 17.0654 4.9346 22 11 22C17.0654 22 22 17.0654 22 11C22 4.9346 17.0654 0 11 0ZM11 2.2C14.5343 2.2 17.5802 4.2988 18.9794 7.3128C18.6396 7.15197 18.3107 6.96897 17.9949 6.765C17.545 6.4812 17.0346 6.1589 16.3889 5.9158C15.653 5.6353 14.8489 5.5 13.9315 5.5C13.0141 5.5 12.21 5.6353 11.4741 5.9147C10.8284 6.16 10.318 6.4823 9.8549 6.7738C9.4391 7.0345 9.0816 7.2611 8.6416 7.4272C8.151 7.6131 7.6186 7.7 6.963 7.7C6.3085 7.7 5.7761 7.6131 5.2866 7.4272C4.8466 7.2611 4.4858 7.0334 4.07 6.7694C3.8929 6.6583 3.696 6.5406 3.498 6.4251C5.0457 3.8962 7.8243 2.2 11 2.2ZM11 19.8C6.1479 19.8 2.2 15.8521 2.2 11C2.2 10.109 2.3353 9.251 2.5828 8.4403C2.6862 8.5041 2.7863 8.5613 2.8941 8.6306C3.3462 8.9166 3.8577 9.24 4.5067 9.4842C5.2426 9.7647 6.0456 9.9 6.963 9.9C7.8793 9.9 8.6834 9.7647 9.4215 9.4853C10.0672 9.24 10.5776 8.9177 11.0407 8.6262C11.4565 8.3655 11.814 8.1389 12.254 7.9717C12.7435 7.7869 13.2759 7.7 13.9315 7.7C14.5871 7.7 15.1195 7.7869 15.609 7.9728C16.0479 8.1378 16.4065 8.3644 16.8344 8.635C17.2843 8.9188 17.7947 9.2411 18.4404 9.4853C18.8397 9.6371 19.2632 9.7372 19.7087 9.8054C19.7626 10.1981 19.8 10.5941 19.8 11C19.8 15.8521 15.8521 19.8 11 19.8Z" fill="white"/>
<path d="M7.15 14.3C8.06127 14.3 8.8 13.5613 8.8 12.65C8.8 11.7387 8.06127 11 7.15 11C6.23873 11 5.5 11.7387 5.5 12.65C5.5 13.5613 6.23873 14.3 7.15 14.3Z" fill="white"/>
<path d="M14.8501 14.3C15.7613 14.3 16.5001 13.5613 16.5001 12.65C16.5001 11.7387 15.7613 11 14.8501 11C13.9388 11 13.2001 11.7387 13.2001 12.65C13.2001 13.5613 13.9388 14.3 14.8501 14.3Z" fill="white"/>
</svg>
