<svg width="26" height="18" viewBox="0 0 26 18" fill="none" xmlns="http://www.w3.org/2000/svg">
<path fill-rule="evenodd" clip-rule="evenodd" d="M5.79639 0.359141C5.49562 0.42201 5.17022 0.698454 5.05395 0.98984C4.99709 1.13236 4.99643 1.21017 4.98908 8.94003C4.98081 17.6088 4.96533 16.9103 5.17263 17.2215C5.22808 17.3048 5.34036 17.4196 5.42214 17.4766C5.68983 17.6632 5.78476 17.6739 7.07067 17.6628C8.38573 17.6515 8.37537 17.6533 8.65546 17.3892C8.76857 17.2826 8.84788 17.1743 8.90468 17.0491C8.95959 16.928 8.98816 16.7967 8.98849 16.6637L8.99591 13.7001L9.00384 10.5347H12.9938H16.9838L16.9917 13.7001L16.9996 16.8654L17.0807 17.0441C17.1822 17.2677 17.3784 17.4665 17.6027 17.573L17.775 17.6549L18.917 17.6638C20.2026 17.6738 20.2981 17.6629 20.5655 17.4766C20.6473 17.4196 20.76 17.3048 20.8159 17.2215C21.0212 16.9162 21.0068 17.57 20.9985 8.92473L20.9913 1.3438C20.9912 1.20547 20.9606 1.06887 20.9017 0.943698C20.7884 0.702781 20.639 0.55067 20.4024 0.435285C20.2796 0.375358 20.1448 0.343656 20.0081 0.342497L19.1257 0.335018C18.3996 0.328848 17.973 0.336889 17.848 0.359054C17.411 0.436542 17.0964 0.751438 17.0166 1.19122C16.9953 1.30883 16.9853 2.33586 16.9853 4.41413V7.46444H12.9947H9.00407L8.99603 4.2991L8.98845 1.31644C8.98814 1.19607 8.96193 1.07717 8.9116 0.967822C8.80466 0.735561 8.62818 0.551956 8.40354 0.439291C8.2789 0.376783 8.14149 0.343942 8.00205 0.343335L7.06473 0.339257C6.43261 0.336509 5.86186 0.345457 5.79639 0.359141ZM2.72798 2.4175C2.41157 2.51967 2.15959 2.75149 2.05472 3.03694C1.9972 3.19347 1.99573 3.25043 1.99573 5.33096V7.46444H1.48276C0.929467 7.46444 0.73176 7.48964 0.538848 7.58474C0.367273 7.6693 0.162272 7.88709 0.074115 8.07844C0.000402023 8.23848 0 8.2433 0 8.99959V9.57894C0 9.69814 0.0258135 9.81592 0.0756656 9.92419C0.182057 10.1552 0.333991 10.3139 0.555101 10.4248C0.680158 10.4875 0.817774 10.5212 0.957671 10.5233L1.37042 10.5295L1.99573 10.5388V12.6703C1.99573 14.7544 1.99706 14.8053 2.0552 14.9636C2.13389 15.1777 2.35425 15.4212 2.56459 15.5264C2.726 15.6071 2.73559 15.6082 3.35255 15.6174L3.97711 15.6268V9.00164V2.37651L3.40998 2.37847C3.0365 2.37975 2.80362 2.39309 2.72798 2.4175ZM22.0105 8.99956V15.6268L22.6351 15.6174C23.205 15.6089 23.2715 15.6025 23.3951 15.5443C23.5753 15.4595 23.8074 15.2343 23.9014 15.0531C23.9514 14.9566 23.9777 14.8496 23.9781 14.7409L23.9854 12.723L23.9933 10.5397L24.6172 10.5299C25.2213 10.5204 25.2461 10.5177 25.4024 10.4431C25.6293 10.3347 25.7851 10.18 25.894 9.95483L25.9876 9.76135L25.9966 9.04281C26.0049 8.37214 26.0015 8.31336 25.9453 8.16037C25.823 7.82746 25.575 7.59813 25.2419 7.50976C25.1169 7.47663 24.9262 7.46444 24.5322 7.46444H23.9933L23.9854 5.29329C23.9776 3.13265 23.9772 3.12148 23.915 2.98422C23.8216 2.77851 23.6178 2.57306 23.4099 2.47534C23.2331 2.39215 23.2234 2.39101 22.6207 2.38174L22.0105 2.37235V8.99956Z" fill="#9AA1AE"/>
</svg>
