<svg width="452" height="539" viewBox="0 0 452 539" fill="none" xmlns="http://www.w3.org/2000/svg">
<path d="M0 0H452V539H0V0Z" fill="#FBF1F1"/>
<path d="M242.667 400.722C315.448 400.722 374.449 341.722 374.449 268.941C374.449 196.16 315.448 137.159 242.667 137.159C169.886 137.159 110.885 196.16 110.885 268.941C110.885 341.722 169.886 400.722 242.667 400.722Z" fill="#DDD2F3"/>
<path d="M255.319 141.829C259.314 140.546 263.562 140.26 267.693 140.994C269.755 141.394 271.713 142.216 273.443 143.409C275.173 144.601 276.638 146.138 277.746 147.923C279.714 152.337 280.359 157.226 279.602 161.999C278.86 173.981 278.128 185.963 277.406 197.945C276.978 201.262 277.295 204.633 278.334 207.813C278.899 209.385 279.973 210.723 281.385 211.614C282.798 212.505 284.468 212.899 286.13 212.731C287.741 212.194 289.295 211.5 290.77 210.659C291.525 210.263 292.387 210.122 293.228 210.256C294.07 210.39 294.846 210.791 295.441 211.401C295.963 212.275 296.139 213.312 295.936 214.309C295.678 216.532 294.899 218.662 293.662 220.527C292.426 222.392 290.767 223.94 288.821 225.043C289.411 224.851 290.038 224.798 290.652 224.89C291.266 224.982 291.85 225.217 292.357 225.574C292.865 225.931 293.282 226.402 293.576 226.949C293.87 227.496 294.032 228.104 294.049 228.725C293.961 229.997 293.5 231.215 292.725 232.227C291.949 233.239 290.893 234.001 289.687 234.417C287.256 235.217 284.688 235.511 282.139 235.283C283.183 235.4 284.138 235.923 284.798 236.74C285.458 237.556 285.77 238.6 285.666 239.645C285.501 240.686 285.061 241.665 284.392 242.481C283.724 243.296 282.85 243.919 281.861 244.285C279.887 245.025 277.758 245.248 275.674 244.934C271.194 244.631 266.898 243.041 263.3 240.356C257.113 235.499 254.731 227.271 254.638 219.475C255.083 211.695 256.117 203.96 257.732 196.336C260.237 178.425 258.196 160.235 256.123 142.293L257.639 141.829" fill="#36383F"/>
<path d="M279.201 409.352C274.344 414.023 272.519 421.293 277.128 426.892C279.347 429.482 282.456 431.144 285.842 431.551C289.227 431.958 292.642 431.079 295.411 429.088C308.558 418.942 294.854 400.195 280.655 404.062C280.128 404.236 279.678 404.589 279.383 405.06C279.089 405.53 278.968 406.089 279.041 406.639C279.114 407.189 279.378 407.696 279.785 408.073C280.193 408.45 280.719 408.673 281.273 408.703C285.501 408.404 289.704 409.561 293.183 411.982C294.841 413.502 295.843 415.608 295.976 417.854C296.109 420.1 295.362 422.31 293.895 424.015C286.161 433.512 272.704 419.499 280.84 410.992C281.002 410.765 281.078 410.489 281.055 410.212C281.031 409.935 280.911 409.675 280.714 409.478C280.518 409.282 280.258 409.161 279.981 409.138C279.704 409.115 279.427 409.191 279.201 409.352V409.352Z" fill="#8AA9FC"/>
<path d="M128.828 357.597C126.8 355.906 125.164 353.795 124.033 351.41C122.208 346.213 125.704 343.615 129.849 341.697C131.927 340.994 133.81 339.81 135.342 338.239C136.875 336.669 138.013 334.759 138.665 332.664C140.614 325.239 134.303 316.083 126.291 318.31C123.693 319.022 124.466 322.332 126.291 323.383C128.797 324.806 132.138 325.642 132.478 329.075C133.035 333.685 128.519 334.984 125.332 336.654C123.643 337.472 122.141 338.63 120.922 340.057C119.702 341.484 118.792 343.148 118.248 344.945C116.361 351.441 120.228 360.412 127.838 359.886C128.101 359.853 128.351 359.751 128.562 359.59C128.773 359.43 128.939 359.217 129.042 358.973C129.145 358.729 129.183 358.462 129.151 358.199C129.119 357.936 129.018 357.685 128.859 357.473L128.828 357.597Z" fill="#6E3281"/>
<path d="M103.956 437.07C104.605 441.37 109.06 450.465 113.793 451.733C116.268 452.413 118.155 450.743 119.98 449.413C123.537 447 127.033 444.494 130.498 442.019C131.17 441.602 131.657 440.943 131.858 440.178C132.06 439.413 131.96 438.599 131.58 437.905L122.3 423.613C121.883 422.949 121.23 422.467 120.472 422.266C119.714 422.065 118.908 422.16 118.216 422.531C114.211 425.106 110.367 427.927 106.709 430.976C104.296 433.203 107.358 436.791 110.081 435.368C113.952 433.047 117.681 430.495 121.248 427.728L117.227 426.707L126.507 440.999C126.847 439.607 127.218 438.245 127.59 436.884L121.403 441.37C120.227 442.205 116.268 445.917 114.937 445.793C113.607 445.67 111.287 441.432 110.545 440.566C109.177 438.77 107.563 437.177 105.75 435.832C104.853 435.214 103.925 436.235 104.079 437.132L103.956 437.07Z" fill="#EDC483"/>
<path d="M317.405 241.622C318.085 245.922 322.54 255.048 327.242 256.285C329.748 256.966 331.604 255.327 333.429 253.965C336.955 251.552 340.451 249.047 343.947 246.572C344.619 246.155 345.106 245.496 345.308 244.731C345.509 243.965 345.409 243.152 345.029 242.458L335.749 228.166C335.332 227.493 334.673 227.006 333.907 226.805C333.142 226.604 332.329 226.703 331.635 227.083C327.626 229.667 323.783 232.498 320.127 235.559C317.745 237.756 320.777 241.344 323.499 239.921C327.375 237.607 331.105 235.055 334.666 232.28L330.552 231.197L339.832 245.489C340.204 244.128 340.544 242.736 340.915 241.375C338.812 242.86 336.708 244.468 334.728 245.861C333.522 246.696 329.562 250.408 328.263 250.284C326.964 250.16 324.582 245.922 323.87 245.056C322.495 243.267 320.882 241.675 319.075 240.323C318.147 239.705 317.25 240.756 317.374 241.622H317.405Z" fill="#FBC580"/>
<path d="M335.78 319.179C327.737 322.922 319.818 326.85 311.93 330.903C311.508 331.081 311.139 331.364 310.857 331.724C310.575 332.085 310.39 332.511 310.318 332.963C310.247 333.415 310.292 333.878 310.45 334.308C310.607 334.738 310.872 335.12 311.218 335.419C317.003 341.39 322.695 347.391 328.913 352.928C329.207 353.152 329.548 353.307 329.911 353.382C330.273 353.457 330.648 353.45 331.007 353.361C331.366 353.272 331.7 353.103 331.986 352.868C332.271 352.632 332.5 352.336 332.656 352C336.523 343.586 342.369 332.109 340.761 322.55C340.359 320.137 336.647 319.024 335.657 321.746C334.526 326.152 333.679 330.626 333.12 335.141C332.043 340.269 330.393 345.26 328.201 350.02L332.409 349.587C326.747 343.184 320.622 337.213 314.497 331.305C314.497 332.697 314.497 334.089 314.497 335.481C322.231 331.15 329.965 326.727 337.451 322.086C339.059 321.127 337.606 318.374 335.904 319.179H335.78Z" fill="#FF7081"/>
<path d="M186.83 430.016C192.89 423.468 198.346 416.386 203.132 408.856C204.555 406.505 201.029 403.845 199.204 405.98C193.549 412.876 188.528 420.269 184.2 428.067C184.038 428.416 184.001 428.81 184.096 429.183C184.19 429.556 184.411 429.885 184.72 430.114C185.029 430.343 185.408 430.458 185.792 430.441C186.177 430.423 186.543 430.273 186.83 430.016V430.016Z" fill="#FF7081"/>
<path d="M382.12 199.244L381.687 198.842C380.739 197.948 379.479 197.46 378.176 197.479C376.873 197.499 375.629 198.025 374.708 198.946C373.786 199.868 373.26 201.112 373.24 202.415C373.221 203.718 373.71 204.977 374.603 205.926L375.005 206.359C375.46 206.879 376.016 207.3 376.64 207.596C377.264 207.892 377.942 208.057 378.633 208.08C379.323 208.103 380.01 207.984 380.653 207.73C381.295 207.477 381.879 207.094 382.367 206.606C382.855 206.117 383.238 205.534 383.492 204.891C383.745 204.249 383.864 203.562 383.841 202.871C383.818 202.181 383.653 201.503 383.357 200.879C383.061 200.255 382.64 199.699 382.12 199.244V199.244Z" fill="#251A51"/>
<path d="M153.08 387.173L152.647 386.771C152.187 386.282 151.634 385.892 151.02 385.621C150.407 385.35 149.745 385.206 149.074 385.196C148.404 385.186 147.738 385.311 147.116 385.563C146.495 385.815 145.93 386.189 145.456 386.663C144.981 387.137 144.607 387.702 144.355 388.324C144.103 388.945 143.978 389.611 143.988 390.282C143.998 390.952 144.143 391.614 144.413 392.228C144.684 392.842 145.075 393.395 145.563 393.855L145.965 394.319C146.914 395.252 148.192 395.775 149.523 395.775C150.854 395.775 152.131 395.252 153.08 394.319C154.008 393.361 154.527 392.08 154.527 390.746C154.527 389.412 154.008 388.131 153.08 387.173V387.173Z" fill="#251A51"/>
<path d="M219.838 227.889L132.416 260.649L140.769 225.353L118.032 219.444C118.032 219.444 93.5624 288.583 110.545 290.594C140.274 293.688 185.284 282.056 185.284 282.056L219.838 227.889Z" fill="#FCD5D1"/>
<path d="M189.459 307.021L189.676 376.16C212.444 404.002 291.76 367.963 291.76 367.963L292.688 339.688L294.513 272.344C292.688 245.523 267.786 232.345 267.786 232.345C255.151 226.751 241.367 224.238 227.571 225.014C212.784 225.725 209.01 232.809 203.07 246.297C198.152 257.186 189.459 267.394 189.459 307.021Z" fill="#F9FAFD"/>
<path d="M264.198 159.863L263.146 173.691C263.146 173.691 274.901 175.268 271.56 186.065C268.219 196.861 260.145 192.097 260.145 192.097C260.145 192.097 258.166 219.567 230.015 210.874C207.618 203.976 208.979 174.866 211.825 150.119C212.106 147.865 212.847 145.692 214.002 143.737C215.158 141.782 216.704 140.086 218.544 138.754C220.384 137.422 222.478 136.483 224.696 135.995C226.914 135.508 229.209 135.482 231.438 135.919L248.359 139.013C253.098 139.939 257.33 142.576 260.251 146.421C263.171 150.265 264.576 155.05 264.198 159.863V159.863Z" fill="#FCD5D1"/>
<path d="M263.146 185.168L255.567 225.631C255.162 227.789 254.323 229.843 253.1 231.667C251.877 233.492 250.296 235.048 248.454 236.243C246.611 237.438 244.544 238.246 242.38 238.618C240.215 238.99 237.998 238.918 235.862 238.407V238.407C231.819 237.478 228.285 235.038 225.984 231.587C223.683 228.135 222.79 223.935 223.488 219.846L227.602 196.676L263.146 185.168Z" fill="#FCD5D1"/>
<path d="M231.932 185.634C231.932 185.634 231.932 186.222 231.221 186.655C230.509 187.088 228.901 186.191 228.53 184.799C228.143 183.305 228.028 181.754 228.189 180.22C228.189 178.426 228.344 176.663 228.468 174.807C228.472 170.158 229.033 165.526 230.138 161.01C230.666 165.635 230.666 170.305 230.138 174.93L229.767 180.313C229.568 181.698 229.568 183.104 229.767 184.489C229.953 185.572 230.726 186.098 231.221 186.036C231.716 185.974 231.932 185.417 231.932 185.634Z" fill="#251A51"/>
<path d="M222.868 207.968C227.016 210.114 231.547 211.418 236.201 211.804C240.865 211.602 245.445 210.499 249.689 208.556C249.689 208.71 248.637 209.886 246.255 211.123C243.135 212.71 239.67 213.496 236.17 213.412C232.667 213.335 229.236 212.4 226.178 210.69C223.889 209.36 222.652 208.122 222.868 207.968Z" fill="#251A51"/>
<path d="M228.375 191.293C228.561 191.293 229.21 191.726 230.386 192.221C231.873 192.858 233.536 192.956 235.088 192.5C236.639 191.944 237.936 190.845 238.738 189.406C239.388 188.324 239.573 187.488 239.821 187.488C240.068 187.488 240.254 188.447 239.821 189.901C239.469 190.841 238.912 191.69 238.189 192.386C237.467 193.082 236.597 193.607 235.645 193.923C234.683 194.217 233.669 194.295 232.674 194.15C231.679 194.006 230.729 193.643 229.891 193.087C228.592 192.314 228.22 191.417 228.375 191.293Z" fill="#251A51"/>
<path d="M264.042 187.333C264.042 187.116 264.723 186.961 265.465 186.467C265.65 186.354 265.811 186.206 265.939 186.03C266.066 185.855 266.158 185.656 266.208 185.446C266.208 184.951 266.208 184.61 265.898 184.518C265.815 184.466 265.718 184.438 265.62 184.438C265.522 184.438 265.425 184.466 265.342 184.518L263.98 183.806C265.063 181.61 266.053 180.125 266.393 180.28C266.734 180.434 266.393 182.167 265.403 184.425L264.042 183.713C264.295 183.328 264.675 183.043 265.115 182.908C265.556 182.772 266.03 182.794 266.455 182.971C266.75 183.082 267.015 183.26 267.23 183.491C267.445 183.722 267.603 183.999 267.693 184.301C267.865 184.813 267.865 185.367 267.693 185.879C267.545 186.255 267.316 186.595 267.021 186.873C266.727 187.151 266.376 187.361 265.991 187.487C264.723 187.859 264.042 187.549 264.042 187.333Z" fill="#251A51"/>
<path d="M242.359 160.111C242.204 159.708 243.689 158.842 245.452 159.337C247.215 159.832 248.236 161.317 247.896 161.595C247.556 161.874 246.473 161.255 245.05 160.915C243.627 160.575 242.513 160.667 242.359 160.111Z" fill="#251A51"/>
<path d="M218.013 156.246C217.827 155.844 219.281 154.823 221.385 155.009C223.488 155.194 224.726 156.463 224.478 156.803C224.231 157.143 222.9 156.803 221.385 156.617C219.869 156.432 218.198 156.679 218.013 156.246Z" fill="#251A51"/>
<path d="M263.146 173.692C255.288 166.052 252.968 153.276 250.772 142.51C247.099 145.14 242.833 146.821 238.353 147.404C233.874 147.987 229.32 147.453 225.096 145.851C222.42 148.97 219.292 151.671 215.816 153.863C215.385 154.21 214.89 154.468 214.359 154.622C213.828 154.776 213.272 154.823 212.722 154.76C211.392 154.358 210.804 152.842 210.495 151.512C209.377 147.208 209.538 142.672 210.959 138.458C211.671 136.38 212.817 134.478 214.321 132.878C215.825 131.278 217.653 130.016 219.683 129.177C224.234 127.811 229.097 127.886 233.603 129.394C240.481 131.186 247.08 133.913 253.216 137.499C259.48 140.668 264.517 145.825 267.538 152.162C270.106 158.658 270.075 171.249 263.95 174.528" fill="#36383F"/>
<path d="M216.775 227.58C224.385 224.486 165.856 246.141 165.856 246.141L171.796 286.17L194.069 278.869L216.775 227.58Z" fill="#F9FAFD"/>
<path d="M139.129 227.579C139.129 227.579 154.38 206.234 151.503 206.265C148.626 206.296 147.358 210.287 142.223 213.04C142.223 213.04 150.668 186.343 148.069 186.9C145.471 187.457 139.222 204.595 138.789 204.564C138.356 204.533 144.141 185.353 141.882 185.137C139.624 184.92 134.427 202.739 134.427 202.739C134.427 202.739 138.17 185.786 136.036 185.415C133.901 185.044 130.344 200.666 130.344 200.666C130.344 200.666 133.066 187.55 130.962 187.24C129.539 186.993 118.032 219.443 118.032 219.443L139.129 227.579Z" fill="#FCD5D1"/>
<path d="M257.206 303.617C256.84 302.623 256.621 301.581 256.557 300.524C256.216 298.513 255.814 295.574 255.35 291.955C254.422 284.716 253.216 274.724 252.009 263.619C251.653 260.856 251.653 258.06 252.009 255.297C252.393 252.666 253.46 250.181 255.103 248.09C257.948 244.627 261.925 242.283 266.332 241.47C269.26 240.848 272.272 240.722 275.241 241.098C276.304 241.146 277.35 241.377 278.335 241.779C277.305 241.868 276.27 241.868 275.241 241.779C272.405 241.638 269.564 241.888 266.796 242.521C262.733 243.419 259.098 245.678 256.495 248.925C254.949 250.819 253.944 253.096 253.587 255.514C253.262 258.144 253.262 260.803 253.587 263.433C254.793 274.477 255.814 284.531 256.464 291.8C256.773 295.451 257.021 298.389 257.144 300.431C257.293 301.487 257.314 302.557 257.206 303.617Z" fill="#251A51"/>
<path d="M255.134 301.08C263.093 301.131 271.04 301.71 278.922 302.812C286.857 303.334 294.745 304.42 302.525 306.061C294.566 306.008 286.619 305.429 278.737 304.328C270.802 303.803 262.915 302.718 255.134 301.08V301.08Z" fill="#251A51"/>
<path d="M185.933 125.372V171.155H155.339L154.349 188.54L136.376 170.165H69L74.9395 122L185.933 125.372Z" fill="#EB6754"/>
<path d="M175.477 138.488C145.378 137.87 115.093 137.653 85.0241 138.303C84.9093 138.303 84.7991 138.348 84.7179 138.43C84.6367 138.511 84.5911 138.621 84.5911 138.736C84.5911 138.851 84.6367 138.961 84.7179 139.042C84.7991 139.123 84.9093 139.169 85.0241 139.169C115.093 139.819 145.378 139.602 175.477 139.014C175.532 138.995 175.579 138.96 175.613 138.913C175.646 138.865 175.664 138.809 175.664 138.751C175.664 138.693 175.646 138.637 175.613 138.59C175.579 138.543 175.532 138.507 175.477 138.488V138.488Z" fill="#E4E1EA"/>
<path d="M175.477 147.274C145.377 146.655 115.092 146.438 85.0239 147.088C84.925 147.114 84.8374 147.172 84.775 147.253C84.7126 147.335 84.6787 147.434 84.6787 147.536C84.6787 147.639 84.7126 147.738 84.775 147.819C84.8374 147.901 84.925 147.959 85.0239 147.985C115.092 148.604 145.377 148.418 175.477 147.799C175.531 147.78 175.579 147.745 175.612 147.698C175.646 147.651 175.664 147.594 175.664 147.536C175.664 147.479 175.646 147.422 175.612 147.375C175.579 147.328 175.531 147.293 175.477 147.274V147.274Z" fill="#E4E1EA"/>
<path d="M175.476 156.554C156.916 155.966 138.355 155.781 119.794 156.369C119.679 156.369 119.569 156.414 119.488 156.495C119.406 156.577 119.361 156.687 119.361 156.802C119.361 156.917 119.406 157.027 119.488 157.108C119.569 157.189 119.679 157.235 119.794 157.235C138.355 157.823 156.916 157.637 175.476 157.08C175.531 157.061 175.578 157.026 175.612 156.978C175.645 156.931 175.663 156.875 175.663 156.817C175.663 156.759 175.645 156.703 175.612 156.656C175.578 156.609 175.531 156.573 175.476 156.554V156.554Z" fill="#E4E1EA"/>
<path d="M220.549 168.649C220.147 168.866 219.528 168.433 218.94 167.907C218.353 167.381 217.92 166.762 218.105 166.36C218.291 165.958 219.25 165.958 220.054 166.731C220.858 167.505 220.951 168.464 220.549 168.649Z" fill="#251A51"/>
<path d="M244.029 171.371C243.627 171.556 242.915 170.814 242.204 169.917C241.492 169.02 241.028 168.092 241.338 167.751C241.647 167.411 242.699 167.751 243.503 168.927C244.307 170.102 244.307 171.185 244.029 171.371Z" fill="#251A51"/>
<g opacity="0.18">
<path opacity="0.18" d="M238.677 191.602C239.326 193.737 238.677 195.81 237.254 196.243C235.831 196.676 234.16 195.346 233.449 193.149C232.737 190.953 233.449 188.942 234.872 188.509C236.295 188.076 238.12 189.344 238.677 191.602Z" fill="#251A51"/>
</g>
<g opacity="0.13">
<path opacity="0.13" d="M252.845 176.816C252.845 179.043 249.968 180.869 246.441 180.9C242.915 180.93 239.976 179.229 239.976 176.909C239.976 174.589 242.822 172.857 246.379 172.826C249.937 172.795 252.814 174.589 252.845 176.816Z" fill="#251A51"/>
</g>
<g opacity="0.13">
<path opacity="0.13" d="M226.333 178.704C226.333 180.931 223.456 182.725 219.93 182.756C216.403 182.787 213.372 181.024 213.372 178.797C213.372 176.569 216.218 174.744 219.775 174.713C223.333 174.682 226.302 176.477 226.333 178.704Z" fill="#251A51"/>
</g>
<path d="M264.723 155.008C264.723 154.854 265.125 154.142 264.723 152.843C264.321 151.544 263.022 149.749 262.032 147.769C260.516 145.402 259.466 142.766 258.938 140.005C260.889 142.04 262.442 144.421 263.517 147.027C264.556 148.769 265.357 150.641 265.899 152.595C265.973 152.938 265.978 153.293 265.914 153.638C265.85 153.983 265.719 154.312 265.528 154.606C265.064 155.008 264.785 155.101 264.723 155.008Z" fill="#6338A1"/>
<path d="M196.419 287.315L191.222 356.268L263.083 365.889L258.227 286.325L196.419 287.315Z" fill="#EB6754"/>
<path d="M202.143 240.572V295.264L210.526 292.109V229.775L202.143 232.343" fill="#EB6754"/>
<path d="M268.714 232.933C268.714 232.933 236.294 237.109 245.884 290.131L253.989 290.997C253.989 290.997 244.832 241.099 275.241 237.635L268.714 232.933Z" fill="#EB6754"/>
<path d="M259.156 294.461C259.156 294.461 270.23 359.733 254.608 358.124C203.226 352.835 172.631 352.123 172.631 352.123L164.124 369.818C163.939 372.911 261.445 400.752 277.098 391.472C288.172 384.976 305.774 367.405 297.793 314.971L295.906 297.369L259.156 294.461Z" fill="#FCD5D1"/>
<path d="M287.615 251.151C287.615 251.151 299.587 262.659 302.278 306.215L255.876 301.08C255.876 301.08 248.205 226.898 287.615 251.151Z" fill="#F9FAFD"/>
<path d="M178.045 352.124C178.045 352.124 152.895 344.266 153.761 346.834C154.628 349.402 158.897 349.525 163.196 353.732C163.196 353.732 135.077 354.011 136.438 356.331C137.799 358.651 156.082 359.239 156.174 359.641C156.267 360.043 136.16 360.507 136.624 362.734C137.088 364.962 155.772 364.343 155.772 364.343C155.772 364.343 138.449 366.199 138.789 368.488C139.129 370.777 155.123 369.138 155.123 369.138C155.123 369.138 141.759 370.685 142.099 372.757C142.316 374.025 181.262 374.335 181.355 375.263C181.448 376.191 178.045 352.186 178.045 352.186" fill="#FCD5D1"/>
<path d="M210.278 287.654C210.464 287.654 210.928 288.768 211.113 290.748C211.202 292.04 210.912 293.33 210.278 294.46C209.922 295.219 209.364 295.865 208.666 296.329C207.968 296.792 207.156 297.056 206.318 297.089C205.497 297.048 204.697 296.811 203.986 296.396C203.276 295.982 202.675 295.402 202.235 294.707C201.526 293.669 201.1 292.465 200.998 291.212C200.843 289.17 200.998 288.118 201.338 287.964C201.678 287.809 201.709 289.201 202.111 291.057C202.318 292.073 202.74 293.033 203.349 293.872C203.678 294.34 204.107 294.729 204.604 295.013C205.102 295.296 205.655 295.466 206.226 295.512C206.787 295.487 207.332 295.31 207.801 295C208.269 294.689 208.645 294.256 208.886 293.748C209.398 292.849 209.695 291.843 209.752 290.81C209.938 288.954 209.876 287.685 210.278 287.654Z" fill="#251A51"/>
<path d="M205.019 288.769C205.019 288.954 205.019 289.295 205.174 289.728C205.328 290.161 205.607 290.316 206.009 290.068C206.411 289.821 206.38 289.542 206.009 289.14C205.638 288.738 205.297 288.831 205.174 288.645C205.05 288.459 205.452 287.872 206.442 288.088C206.739 288.164 207.011 288.315 207.233 288.526C207.455 288.738 207.619 289.002 207.71 289.295C207.808 289.69 207.782 290.105 207.635 290.485C207.489 290.865 207.229 291.19 206.891 291.416C206.553 291.643 206.153 291.76 205.746 291.751C205.339 291.742 204.945 291.608 204.617 291.367C204.382 291.17 204.202 290.915 204.094 290.628C203.985 290.341 203.952 290.031 203.998 289.728C204.091 288.738 204.957 288.552 205.019 288.769Z" fill="#251A51"/>
<path d="M253.185 286.543C253.37 286.543 253.989 287.193 253.773 288.647C253.606 289.586 253.133 290.444 252.428 291.088C251.723 291.731 250.826 292.123 249.875 292.204C248.936 292.215 248.02 291.918 247.266 291.36C246.512 290.801 245.962 290.011 245.699 289.111C245.358 287.688 245.915 286.883 246.07 286.976C246.224 287.069 246.255 287.78 246.75 288.708C246.971 289.332 247.386 289.869 247.934 290.239C248.482 290.61 249.135 290.795 249.796 290.767C250.457 290.739 251.092 290.5 251.607 290.085C252.122 289.67 252.491 289.101 252.659 288.461C253.092 287.502 252.968 286.605 253.185 286.543Z" fill="#251A51"/>
<path d="M247.958 284.625C247.958 284.625 248.236 283.882 249.288 283.852C249.609 283.851 249.926 283.924 250.215 284.063C250.504 284.202 250.758 284.405 250.958 284.656C251.217 285.011 251.357 285.439 251.357 285.878C251.357 286.317 251.217 286.745 250.958 287.1C250.724 287.506 250.351 287.814 249.908 287.968C249.464 288.121 248.981 288.109 248.545 287.935C248.21 287.771 247.939 287.498 247.776 287.162C247.614 286.825 247.569 286.444 247.648 286.079C247.676 285.852 247.762 285.636 247.897 285.452C248.032 285.267 248.213 285.121 248.422 285.027C248.731 285.027 248.886 285.027 248.917 285.027C248.947 285.027 248.638 285.522 248.917 285.986C249.195 286.45 249.319 286.574 249.721 285.986C250.123 285.398 249.721 284.996 249.133 284.718C248.545 284.439 248.081 284.811 247.958 284.625Z" fill="#251A51"/>
<path d="M246.256 318.777C245.823 318.777 245.761 317.292 245.792 315.683C245.823 314.075 246.008 312.59 246.472 312.59C246.936 312.59 247.462 313.92 247.401 315.683C247.339 317.447 246.689 318.87 246.256 318.777Z" fill="#251A51"/>
<path d="M240.625 329.601C240.316 329.292 240.996 328.086 241.955 326.755C242.914 325.425 243.843 324.404 244.245 324.621C244.647 324.837 244.245 326.26 243.255 327.714C242.265 329.168 240.904 329.911 240.625 329.601Z" fill="#251A51"/>
<path d="M229.798 335.171C229.798 334.738 231.005 334.212 232.552 333.686C234.098 333.16 235.428 332.882 235.645 333.284C235.862 333.686 234.748 334.676 233.046 335.233C231.345 335.79 229.86 335.635 229.798 335.171Z" fill="#251A51"/>
<path d="M217.672 333.625C217.888 333.223 219.219 333.625 220.765 333.903C222.312 334.182 223.642 334.862 223.58 335.295C223.519 335.728 222.065 335.945 220.487 335.295C218.909 334.646 217.486 333.903 217.672 333.625Z" fill="#251A51"/>
<path d="M208.762 325.334C209.133 325.117 210.092 326.138 211.113 327.406C212.134 328.675 212.845 329.85 212.567 330.191C212.288 330.531 210.927 329.819 209.845 328.427C208.762 327.035 208.36 325.55 208.762 325.334Z" fill="#251A51"/>
<path d="M206.041 313.423C206.505 313.423 206.722 314.846 206.845 316.517C206.969 318.187 206.845 319.61 206.505 319.61C206.165 319.61 205.392 318.404 205.237 316.517C205.082 314.63 205.608 313.392 206.041 313.423Z" fill="#251A51"/>
<path d="M216.465 311.537C216.465 311.97 215.073 312.279 213.372 312.217C211.67 312.156 210.278 311.753 210.278 311.32C210.278 310.887 211.67 310.547 213.372 310.609C215.073 310.671 216.465 311.104 216.465 311.537Z" fill="#251A51"/>
<path d="M228.839 311.968C228.839 312.432 227.447 312.742 225.746 312.68C224.044 312.618 222.652 312.185 222.652 311.752C222.652 311.319 224.075 311.009 225.746 311.071C227.416 311.133 228.839 311.535 228.839 311.968Z" fill="#251A51"/>
<path d="M241.213 312.434C241.213 312.867 239.79 313.177 238.12 313.115C236.449 313.053 235.026 312.651 235.026 312.218C235.026 311.785 236.449 311.444 238.12 311.506C239.79 311.568 241.213 311.97 241.213 312.434Z" fill="#251A51"/>
<path d="M246.318 450.836C248.367 442.148 249.651 433.298 250.154 424.387C250.154 421.664 245.854 420.984 245.328 423.737C243.804 432.543 243.048 441.465 243.07 450.403C243.094 450.788 243.252 451.154 243.516 451.436C243.779 451.719 244.133 451.901 244.516 451.952C244.899 452.003 245.288 451.92 245.617 451.716C245.945 451.513 246.193 451.202 246.318 450.836V450.836Z" fill="#E8947E"/>
<path d="M291.266 480.161L290.833 479.759C289.885 478.865 288.625 478.377 287.322 478.396C286.019 478.416 284.775 478.942 283.854 479.863C282.932 480.785 282.406 482.029 282.386 483.332C282.367 484.635 282.856 485.894 283.749 486.843L284.151 487.276C284.606 487.796 285.162 488.217 285.786 488.513C286.41 488.809 287.088 488.974 287.779 488.997C288.469 489.02 289.156 488.901 289.799 488.647C290.441 488.394 291.025 488.011 291.513 487.523C292.001 487.034 292.384 486.451 292.638 485.808C292.891 485.166 293.01 484.479 292.987 483.788C292.964 483.098 292.799 482.42 292.503 481.796C292.207 481.172 291.786 480.616 291.266 480.161V480.161Z" fill="#251A51"/>
</svg>
