<svg width="501" height="411" viewBox="0 0 501 411" fill="none" xmlns="http://www.w3.org/2000/svg">
<path d="M431.671 124.43C426.873 129.113 425.04 136.401 429.623 142.015C431.809 144.609 434.876 146.275 438.215 146.683C441.554 147.09 444.922 146.21 447.652 144.217C460.669 134.044 447.102 115.249 433.076 119.126C432.556 119.301 432.112 119.654 431.82 120.126C431.529 120.598 431.41 121.158 431.482 121.709C431.555 122.261 431.815 122.77 432.217 123.147C432.62 123.525 433.14 123.748 433.687 123.778C437.823 123.507 441.926 124.666 445.329 127.066C446.972 128.586 447.967 130.696 448.104 132.947C448.24 135.199 447.509 137.417 446.063 139.13C438.393 148.652 425.132 134.602 433.137 126.073C433.352 125.86 433.474 125.568 433.477 125.262C433.48 124.957 433.363 124.663 433.153 124.445C432.942 124.227 432.655 124.103 432.354 124.1C432.053 124.097 431.763 124.216 431.549 124.43H431.671Z" fill="#7CABFF"/>
<path d="M85.8045 89.0714C83.376 87.9574 80.707 87.4929 78.0516 87.722C75.3962 87.9511 72.8427 88.8662 70.6343 90.3803C68.4259 91.8943 66.636 93.9568 65.4351 96.3716C64.2341 98.7863 63.6621 101.473 63.7734 104.175C63.9262 108.362 65.5763 113.139 62.9484 116.395C60.9317 118.907 57.2955 119.124 54.3621 120.458C51.6847 121.865 49.6139 124.226 48.5479 127.089C47.4819 129.951 47.4958 133.112 48.587 135.965C49.962 139.067 52.651 141.827 52.1621 145.269C51.9145 146.328 51.4378 147.316 50.7665 148.164C50.0952 149.012 49.2463 149.697 48.2814 150.17C46.4481 151.255 44.3702 151.875 42.4452 152.806C39.0121 154.681 36.1633 157.492 34.2198 160.923C32.2762 164.353 31.3152 168.266 31.445 172.221C31.6389 176.177 32.683 180.043 34.5041 183.547C36.3251 187.051 38.879 190.108 41.9869 192.504C48.272 197.234 55.8586 199.848 63.6818 199.979C71.5364 200.582 79.3323 198.206 85.56 193.311C89.8771 189.271 93.1419 184.21 95.063 178.579C99.2261 168.056 100.931 156.697 100.044 145.393C99.0659 133.732 95.338 122.443 94.5436 110.781C94.4782 106.852 94.1207 102.933 93.4741 99.058C93.1273 97.1267 92.4092 95.2835 91.3606 93.6339C90.312 91.9842 88.9536 90.5604 87.3628 89.4436" fill="#36383F"/>
<path d="M84.0322 90.7154C86.2839 86.0588 89.532 81.9715 93.5392 78.752C97.5464 75.5325 102.212 73.2622 107.194 72.1068C113.377 70.4767 119.94 71.3206 125.528 74.4639C128.223 76.0677 130.417 78.4126 131.855 81.228C133.293 84.0433 133.917 87.2141 133.655 90.3743C132.753 94.2044 131.452 97.9264 129.775 101.477C128.968 103.267 128.62 105.236 128.764 107.199C128.908 109.162 129.54 111.056 130.6 112.705C132.8 115.434 136.711 116.116 139.583 117.884C141.748 119.154 143.522 121.009 144.71 123.242C145.897 125.476 146.45 128 146.307 130.533C146.165 133.067 145.332 135.51 143.902 137.592C142.472 139.674 140.501 141.312 138.208 142.323C140.466 142.61 142.638 143.376 144.585 144.57C146.532 145.765 148.209 147.361 149.509 149.256C150.808 151.152 151.701 153.303 152.128 155.571C152.555 157.839 152.508 160.172 151.989 162.421C149.993 168.816 145.604 174.161 139.767 177.307C131.995 182.179 123.131 184.964 114.008 185.402C104.383 185.836 93.7185 182.952 88.4628 174.733C85.0405 169.337 84.4905 162.607 84.1238 156.125C82.9627 136.772 82.1682 117.388 81.3432 98.0038C81.0763 94.8944 81.2409 91.7624 81.8321 88.6995" fill="#36383F"/>
<path d="M116.422 178.176L202.774 211.02L194.523 175.633L216.982 169.864C216.982 169.864 241.152 239.026 224.377 240.887C195.012 243.989 150.583 232.327 150.583 232.327L116.422 178.176Z" fill="#FCD5D1"/>
<path d="M108.874 329.186C108.874 329.186 213.102 213.627 283.625 238.872C354.149 264.118 383.789 381.786 383.789 381.786L327.687 380.887C327.687 380.887 283.381 291.969 261.778 295.411C240.174 298.854 173.378 383.492 173.378 383.492L108.874 329.186Z" fill="#251A51"/>
<path d="M141.874 259.031L146.213 326.829C123.724 354.897 45.3779 318.61 45.3779 318.61L44.4612 290.263L42.7195 222.745C44.5223 195.855 69.1201 182.674 69.1201 182.674C81.5981 177.055 95.213 174.525 108.843 175.293C123.449 176.037 127.177 183.108 133.044 196.631C137.841 207.548 151.041 225.35 141.874 259.031Z" fill="#FF7963"/>
<path d="M60.0758 331.388C60.0758 331.388 48.0977 381.011 84.5207 388.64C120.944 396.27 255.208 378.219 290.164 381.321C325.121 384.422 424.612 390.346 424.612 390.346L431.884 331.605C431.884 331.605 277.208 324.068 259.7 328.503C242.191 332.938 60.0758 331.388 60.0758 331.388Z" fill="#251A51"/>
<path d="M77.5847 244.919C77.5847 244.919 66.6456 310.359 82.0765 308.746C132.83 303.474 163.051 302.761 163.051 302.761L171.453 320.47C171.637 323.571 75.3236 351.484 59.8621 342.18C48.923 335.636 31.5365 318.051 39.42 265.45L41.2839 247.834L77.5847 244.919Z" fill="#FCD5D1"/>
<path d="M123.358 338.892L123.266 334.488L186.976 325.37L203.873 265.357L274.458 263.62L255.422 328.564L123.358 338.892Z" fill="#7CABFF"/>
<path d="M237.882 293.767C237.906 294.815 237.623 295.847 237.069 296.733C236.515 297.618 235.715 298.317 234.77 298.74C233.825 299.164 232.777 299.294 231.759 299.113C230.741 298.933 229.799 298.45 229.051 297.726C228.304 297.002 227.785 296.069 227.559 295.046C227.334 294.022 227.413 292.954 227.786 291.976C228.158 290.997 228.809 290.153 229.654 289.55C230.499 288.947 231.502 288.612 232.535 288.587C233.222 288.567 233.907 288.685 234.549 288.935C235.191 289.185 235.777 289.561 236.275 290.043C236.772 290.525 237.17 291.102 237.446 291.741C237.722 292.38 237.871 293.069 237.882 293.767V293.767Z" fill="white"/>
<path opacity="0.41" d="M239.991 293.768C240.033 295.24 239.643 296.693 238.871 297.94C238.1 299.188 236.98 300.175 235.655 300.777C234.33 301.379 232.859 301.568 231.428 301.32C229.998 301.073 228.671 300.4 227.617 299.387C226.564 298.374 225.83 297.066 225.509 295.629C225.187 294.192 225.294 292.691 225.814 291.316C226.334 289.94 227.244 288.752 228.43 287.902C229.616 287.053 231.023 286.579 232.474 286.541C234.414 286.491 236.294 287.224 237.703 288.578C239.112 289.933 239.935 291.799 239.991 293.768V293.768Z" fill="white"/>
<path d="M49.656 201.5C49.656 201.5 37.8308 213.068 35.1724 256.705L81.0067 251.557C81.0067 251.557 88.6152 177.216 49.656 201.5Z" fill="#FF7963"/>
<path d="M245.063 97.0742C245.063 97.0742 227.952 133.671 232.321 135.904C236.691 138.137 283.809 153.272 283.809 153.272C283.809 153.272 297.406 118.443 296.52 114.442C295.634 110.441 245.063 97.0742 245.063 97.0742Z" fill="#EB6754"/>
<path d="M296.52 114.442C293.489 116.067 290.331 117.436 287.078 118.536C281.15 120.862 272.961 123.995 263.856 127.344L263.214 127.592L262.603 127.809L262.267 127.251C257.317 119.001 252.825 111.496 249.769 106.037C247.97 103.175 246.387 100.179 245.033 97.0742C247.161 99.7018 249.072 102.503 250.747 105.448C254.078 110.752 258.63 118.164 263.581 126.414L262.633 126.073L263.306 125.824C272.472 122.475 280.662 119.622 286.651 117.451C289.859 116.19 293.158 115.184 296.52 114.442V114.442Z" fill="#FCFCFD"/>
<path d="M232.107 128.957C235.837 126.261 239.868 124.023 244.116 122.289C248.113 120.001 252.372 118.22 256.797 116.985C253.049 119.644 249.022 121.87 244.788 123.622C240.786 125.907 236.528 127.698 232.107 128.957V128.957Z" fill="#FCFCFD"/>
<path d="M287.506 146.355C284.583 143.081 282.05 139.469 279.959 135.593C277.479 131.929 275.428 127.984 273.848 123.839C276.801 127.145 279.337 130.812 281.395 134.756C283.877 138.363 285.929 142.257 287.506 146.355V146.355Z" fill="#FCFCFD"/>
<path d="M72.5424 110.007L73.5813 123.87C73.5813 123.87 61.97 125.452 65.2701 136.276C68.5701 147.1 76.5453 142.479 76.5453 142.479C76.5453 142.479 78.6537 169.71 106.368 161.057C128.521 154.202 127.146 125.018 124.488 100.237C124.222 97.957 123.491 95.7577 122.343 93.7792C121.195 91.8007 119.653 90.0861 117.817 88.7445C115.981 87.4029 113.89 86.4635 111.677 85.986C109.464 85.5085 107.178 85.5034 104.963 85.9708L88.2483 89.0723C83.551 89.9883 79.3515 92.6305 76.4536 96.493C73.5558 100.356 72.1632 105.167 72.5424 110.007V110.007Z" fill="#FCD5D1"/>
<path d="M73.6428 135.346L81.1291 175.912C81.529 178.077 82.3581 180.136 83.566 181.965C84.7739 183.794 86.3353 185.355 88.1556 186.553C89.9759 187.75 92.017 188.56 94.1551 188.933C96.2932 189.306 98.4836 189.234 100.593 188.721V188.721C104.587 187.79 108.078 185.344 110.35 181.884C112.623 178.424 113.505 174.212 112.816 170.113L108.599 146.821L73.6428 135.346Z" fill="#FCD5D1"/>
<path d="M104.383 135.81C104.383 135.81 104.719 136.183 105.238 136.245C105.758 136.307 106.491 135.779 106.674 134.663C106.871 133.274 106.871 131.865 106.674 130.476L106.155 125.08C105.634 120.442 105.634 115.76 106.155 111.123C107.248 115.661 107.802 120.315 107.805 124.986C107.805 126.816 107.988 128.584 108.08 130.383C108.238 131.931 108.124 133.496 107.744 135.004C107.377 136.4 105.972 137.268 105.086 136.834C104.199 136.4 104.322 135.81 104.383 135.81Z" fill="#251A51"/>
<path d="M113.427 158.233C113.427 158.233 112.419 159.598 110.158 160.932C107.14 162.647 103.753 163.584 100.296 163.66C96.8377 163.735 93.4145 162.948 90.3268 161.366C87.9739 160.125 86.8128 158.947 86.935 158.792C91.1378 160.686 95.6614 161.739 100.258 161.893C104.841 161.557 109.314 160.313 113.427 158.233V158.233Z" fill="#251A51"/>
<path d="M107.988 141.518C107.988 141.518 107.774 142.541 106.552 143.409C105.738 143.984 104.806 144.362 103.827 144.515C102.847 144.668 101.846 144.592 100.9 144.293C99.9542 143.994 99.0879 143.479 98.3675 142.789C97.647 142.098 97.0914 141.25 96.743 140.308C96.2541 138.85 96.468 137.92 96.743 137.92C97.0181 137.92 97.1708 138.726 97.8125 139.812C98.6064 141.227 99.8938 142.289 101.421 142.789C102.948 143.288 104.604 143.189 106.063 142.51C107.163 141.797 107.804 141.332 107.988 141.518Z" fill="#251A51"/>
<path d="M72.7567 137.548C72.7567 137.734 72.0845 138.075 70.8928 137.703C70.5131 137.576 70.1656 137.366 69.8751 137.087C69.5847 136.808 69.3583 136.468 69.2122 136.09C69.0422 135.588 69.0422 135.042 69.2122 134.54C69.2987 134.232 69.454 133.949 69.666 133.712C69.878 133.475 70.141 133.292 70.4344 133.175C70.8602 133.002 71.3314 132.981 71.7702 133.117C72.2091 133.252 72.5894 133.535 72.8484 133.919L71.4733 134.633C70.5872 132.369 70.1594 130.632 70.4955 130.477C70.8317 130.322 71.8095 131.841 72.8789 134.012L71.5345 134.726C71.4475 134.688 71.354 134.669 71.2594 134.669C71.1649 134.669 71.0714 134.688 70.9844 134.726C70.7094 134.726 70.5567 135.16 70.6789 135.656C70.7986 136.082 71.0572 136.454 71.4122 136.711C72.0845 137.145 72.7873 137.3 72.7567 137.548Z" fill="#251A51"/>
<path d="M115.535 118.101C115.108 118.101 114.527 117.263 114.252 116.054C113.977 114.844 114.252 113.759 114.527 113.666C114.802 113.573 115.535 114.472 115.81 115.682C116.085 116.891 115.963 117.977 115.535 118.101Z" fill="#251A51"/>
<path d="M91.9765 120.304C91.5793 120.304 90.9376 119.529 90.6015 118.319C90.2654 117.109 90.357 115.993 90.7848 115.869C91.2126 115.745 91.8237 116.644 92.1598 117.885C92.496 119.125 92.4043 120.087 91.9765 120.304Z" fill="#251A51"/>
<path d="M94.1763 110.224C94.1763 110.658 92.8012 110.658 91.3956 111.031C89.9901 111.403 88.9206 112.023 88.5845 111.713C88.2484 111.403 89.1039 109.976 90.9984 109.48C92.8929 108.984 94.3291 109.821 94.1763 110.224Z" fill="#251A51"/>
<path d="M118.377 106.347C118.194 106.782 116.819 106.564 115.321 106.72C113.824 106.875 112.266 107.309 112.266 106.906C112.266 106.502 113.243 105.293 115.321 105.107C117.399 104.921 118.377 105.975 118.377 106.347Z" fill="#251A51"/>
<path d="M73.6425 123.871C81.4037 116.179 83.6955 103.37 85.865 92.6084C89.4999 95.2298 93.7129 96.9059 98.1347 97.4899C102.556 98.0739 107.052 97.5479 111.227 95.958C113.871 99.0752 116.961 101.772 120.393 103.96C120.815 104.314 121.304 104.576 121.829 104.731C122.355 104.885 122.906 104.929 123.449 104.859C124.763 104.456 125.344 102.936 125.649 101.603C126.754 97.2875 126.595 92.7391 125.191 88.5145C124.477 86.4372 123.341 84.5355 121.857 82.9326C120.372 81.3296 118.573 80.0614 116.574 79.2102C112.078 77.84 107.275 77.9159 102.824 79.4273C96.0291 81.2345 89.5108 83.979 83.451 87.5841C77.2505 90.7439 72.2702 95.919 69.3035 102.285C66.7673 108.767 66.7979 121.39 72.848 124.677" fill="#36383F"/>
<g opacity="0.28">
<path opacity="0.28" d="M105.33 143.006C105.409 143.545 105.359 144.096 105.183 144.611C105.008 145.127 104.712 145.591 104.321 145.965C103.93 146.34 103.456 146.612 102.939 146.76C102.422 146.908 101.877 146.927 101.351 146.815C100.825 146.702 100.334 146.463 99.9193 146.116C99.5044 145.77 99.1783 145.327 98.9688 144.825C98.7593 144.322 98.6725 143.776 98.716 143.233C98.7595 142.689 98.9318 142.164 99.2184 141.703C100.441 139.811 102.06 138.602 103.007 138.881C103.955 139.16 104.963 140.804 105.33 143.006Z" fill="#F20000"/>
</g>
<g opacity="0.12">
<path opacity="0.5" d="M95.6437 130.135C96.0409 132.337 93.3825 134.632 89.5324 134.818C85.6824 135.004 82.9629 132.926 83.1462 130.724C83.3295 128.522 86.049 126.909 89.2574 126.754C92.4658 126.599 95.2465 127.933 95.6437 130.135Z" fill="#F20000"/>
</g>
<g opacity="0.12">
<path opacity="0.5" d="M125.039 127.716C125.466 129.887 123.144 132.213 119.783 132.368C116.422 132.523 113.886 130.476 114.1 128.274C114.493 127.153 115.206 126.176 116.147 125.466C117.087 124.756 118.214 124.346 119.385 124.286C120.556 124.226 121.718 124.52 122.725 125.131C123.731 125.741 124.536 126.641 125.039 127.716V127.716Z" fill="#F20000"/>
</g>
<path d="M71.0457 140.122C72.0199 143.608 72.2947 147.258 71.8538 150.854C71.4129 154.45 70.2653 157.919 68.479 161.057" fill="#E27864"/>
<path d="M119.447 177.897C111.93 174.796 169.742 196.506 169.742 196.506L163.875 236.762L141.875 229.443L119.447 177.897Z" fill="#FF7963"/>
<path d="M85.0709 87.1182C85.9717 85.7121 86.5776 84.1328 86.8509 82.4788C87.1243 80.8247 87.0593 79.1312 86.6599 77.5037C86.4409 76.1446 85.8069 74.8896 84.8475 73.9158C83.888 72.942 82.6516 72.2985 81.3125 72.0762C80.5411 72.0726 79.7767 72.2242 79.0634 72.5224C78.3501 72.8205 77.7021 73.2592 77.1569 73.813C75.7478 75.1375 74.8187 76.9045 74.5191 78.8299C74.2195 80.7553 74.5668 82.727 75.5051 84.4277C76.4435 86.1285 77.9183 87.4593 79.6922 88.2061C81.4661 88.9529 83.436 89.0722 85.2848 88.5448" fill="#36383F"/>
<path d="M430.356 344.103C430.356 344.103 453.488 312.142 451.196 322.501C448.904 332.859 425.467 383.491 425.467 383.491L430.356 344.103Z" fill="#FF7963"/>
<path d="M157.703 302.761C157.703 302.761 182.545 294.852 181.689 297.457C180.834 300.062 176.617 300.155 172.523 304.342C172.523 304.342 200.298 304.653 198.954 306.979C197.609 309.305 179.551 309.863 179.459 310.266C179.367 310.669 199.229 311.166 198.77 313.368C198.312 315.57 179.856 314.98 179.856 314.98C179.856 314.98 196.968 316.841 196.631 319.167C196.295 321.493 180.498 319.788 180.498 319.788C180.498 319.788 193.698 321.338 193.362 323.416C193.148 324.719 154.678 324.998 154.586 325.928C154.494 326.859 157.856 302.823 157.856 302.823" fill="#FCD5D1"/>
<path d="M196.143 177.898C196.143 177.898 181.079 156.498 183.768 156.498C186.456 156.498 187.862 160.53 193.087 163.29C193.087 163.29 184.745 136.525 187.312 137.083C189.879 137.641 196.051 154.823 196.479 154.823C196.907 154.823 191.193 135.563 193.423 135.315C195.654 135.067 200.787 152.993 200.787 152.993C200.787 152.993 197.09 135.966 199.351 135.594C201.612 135.222 204.974 150.884 204.974 150.884C204.974 150.884 202.285 137.703 204.362 137.393C205.615 137.207 216.982 169.865 216.982 169.865L196.143 177.898" fill="#FCD5D1"/>
<path d="M79.5094 254.13C79.3941 253.099 79.3941 252.059 79.5094 251.028C79.5094 249.012 79.8761 246.035 80.1816 242.406C80.8233 235.118 81.8317 225.038 83.0234 213.935C83.344 211.299 83.344 208.632 83.0234 205.995C82.7132 203.602 81.7856 201.333 80.3344 199.42C77.7629 196.166 74.1728 193.9 70.1592 193C67.4254 192.365 64.6184 192.114 61.8173 192.256C60.801 192.352 59.7781 192.352 58.7617 192.256C59.7296 191.833 60.7648 191.592 61.8173 191.543C64.6945 191.158 67.6136 191.242 70.4648 191.791C74.8685 192.563 78.856 194.906 81.7094 198.397C83.3374 200.502 84.3912 203.005 84.7651 205.654C85.1165 208.413 85.1165 211.207 84.7651 213.966C83.5734 225.1 82.3817 235.118 81.465 242.406C81.0067 246.035 80.6094 248.95 80.2733 250.997C80.1625 252.072 79.9055 253.126 79.5094 254.13V254.13Z" fill="#251A51"/>
<path d="M81.7101 251.587C74.0192 253.214 66.2307 254.322 58.3957 254.905C50.6097 256.009 42.7594 256.579 34.8979 256.611C42.5415 255.041 50.2789 253.984 58.0596 253.448C65.8903 252.265 73.7933 251.643 81.7101 251.587V251.587Z" fill="#251A51"/>
<path d="M145.205 246.346C146.032 239.489 145.733 232.541 144.319 225.783C142.399 219.12 139.394 212.831 135.427 207.175C137.17 208.397 138.647 209.97 139.766 211.796C142.626 215.951 144.699 220.61 145.878 225.535C147.12 230.413 147.431 235.488 146.794 240.484C146.63 242.522 146.091 244.51 145.205 246.346V246.346Z" fill="#251A51"/>
<path d="M391.091 183.17C388.249 180.069 384.613 176.564 387.272 171.633C389.197 168.128 392.497 168.314 395.522 166.701C397.277 165.882 398.823 164.665 400.042 163.143C401.26 161.621 402.118 159.836 402.55 157.924C404.047 150.605 398.394 142.976 390.908 143.999C388.463 144.34 388.433 147.938 390.236 149.023C393.902 151.256 399.188 154.668 394.666 159.568C392.772 161.646 389.227 161.863 386.905 163.352C384.092 165.105 382.023 167.858 381.099 171.075C379.296 177.525 382.933 185.341 389.93 185.775C390.223 185.766 390.507 185.67 390.748 185.501C390.989 185.332 391.178 185.096 391.29 184.822C391.403 184.547 391.436 184.245 391.384 183.953C391.332 183.66 391.199 183.388 390.999 183.17H391.091Z" fill="#6E3281"/>
<path d="M282.056 67.542C286.106 66.5106 290.886 64.9674 293.868 69.7047C295.969 73.1033 294.219 75.9462 294.156 79.4111C294.019 81.3654 294.326 83.326 295.055 85.1416C295.783 86.9573 296.913 88.5796 298.357 89.8836C303.962 94.7393 313.279 93.3908 316 86.2454C316.882 83.9089 313.788 82.149 311.981 83.2281C308.285 85.411 302.791 88.4652 300.733 82.0865C299.85 79.4022 301.369 76.1479 301.201 73.3673C301.041 70.0234 299.658 66.8585 297.323 64.4888C292.616 59.7797 284.109 59.2466 280.364 65.2554C280.231 65.5204 280.177 65.8186 280.207 66.1144C280.236 66.4101 280.35 66.691 280.533 66.9234C280.716 67.1559 280.961 67.3301 281.239 67.4253C281.517 67.5206 281.816 67.5328 282.1 67.4605L282.056 67.542Z" fill="#6E3281"/>
<path d="M409.7 202.801C406.824 201.474 403.692 200.817 400.533 200.878C397.813 200.878 394.085 200.227 391.947 202.305C389.808 204.383 390.419 207.267 390.358 209.779C390.358 213.78 390.358 217.75 390.205 221.751C390.205 222.573 390.527 223.362 391.1 223.944C391.673 224.525 392.45 224.852 393.26 224.852L410.066 225.751C410.877 225.751 411.654 225.425 412.227 224.843C412.8 224.261 413.122 223.473 413.122 222.65C413.412 218.137 413.412 213.61 413.122 209.097C412.786 206.274 408.202 204.941 407.714 208.352C407.255 213.103 407.102 217.879 407.255 222.65L410.311 219.549L393.505 218.68L396.56 221.782C396.56 219.207 396.56 216.633 396.56 214.028C396.56 213.005 395.858 206.864 396.56 206.305C398.499 205.982 400.469 205.899 402.427 206.057C404.975 206.078 407.51 205.701 409.944 204.941C410.153 204.872 410.338 204.745 410.478 204.574C410.619 204.403 410.708 204.195 410.737 203.974C410.766 203.754 410.732 203.529 410.641 203.327C410.549 203.125 410.403 202.953 410.219 202.832L409.7 202.801Z" fill="#FBC580"/>
<path d="M339.665 156.001C334.868 160.684 333.034 167.972 337.618 173.586C339.804 176.18 342.87 177.846 346.209 178.254C349.548 178.662 352.916 177.782 355.646 175.788C368.663 165.615 355.096 146.821 341.071 150.697C340.536 150.854 340.075 151.201 339.771 151.674C339.467 152.147 339.34 152.715 339.414 153.275C339.488 153.835 339.758 154.349 340.174 154.724C340.59 155.099 341.125 155.31 341.682 155.319C345.869 155.048 350.024 156.217 353.477 158.637C355.106 160.16 356.089 162.266 356.22 164.51C356.351 166.754 355.62 168.963 354.179 170.671C346.54 180.223 333.248 166.174 341.285 157.645C341.444 157.418 341.519 157.141 341.496 156.863C341.473 156.585 341.354 156.324 341.16 156.127C340.966 155.93 340.709 155.809 340.435 155.786C340.162 155.763 339.889 155.839 339.665 156.001V156.001Z" fill="#7CABFF"/>
<path d="M320.873 202.461C319.223 211.207 317.818 219.953 316.504 228.73C316.428 229.154 316.454 229.591 316.581 230.002C316.707 230.414 316.93 230.788 317.231 231.093C317.531 231.398 317.9 231.624 318.306 231.753C318.711 231.882 319.141 231.908 319.559 231.831C327.687 230.653 335.785 229.536 343.821 227.737C344.173 227.632 344.498 227.446 344.77 227.196C345.042 226.945 345.255 226.636 345.393 226.29C345.531 225.944 345.591 225.571 345.567 225.199C345.543 224.827 345.438 224.465 345.257 224.14C340.704 216.014 334.929 204.694 326.373 200.259C324.204 199.142 321.118 201.592 322.737 203.949C325.603 207.423 328.664 210.726 331.904 213.843C335.423 217.739 338.498 222.026 341.071 226.621L343.149 222.93C334.746 223.768 326.465 225.318 318.154 226.776L321.423 229.319C322.432 220.48 323.318 211.672 323.99 202.802C323.971 202.405 323.816 202.028 323.552 201.735C323.288 201.442 322.932 201.252 322.545 201.197C322.157 201.142 321.763 201.226 321.43 201.434C321.097 201.642 320.846 201.961 320.72 202.337L320.873 202.461Z" fill="#FF7081"/>
<path d="M300.278 184.689C302.3 175.979 303.568 167.106 304.067 158.172C304.067 155.443 299.79 154.761 299.301 157.521C297.795 166.339 297.049 175.274 297.07 184.224C297.14 184.558 297.309 184.861 297.553 185.095C297.798 185.328 298.107 185.481 298.439 185.531C298.771 185.582 299.111 185.528 299.412 185.378C299.713 185.227 299.962 184.987 300.126 184.689H300.278Z" fill="#E8947E"/>
<path d="M440.165 168.593C437.451 177.127 435.478 185.886 434.267 194.769C433.931 197.56 438.331 197.871 439.034 195.42C441.226 186.766 442.678 177.935 443.373 169.027C443.373 167.104 440.684 166.856 440.165 168.593V168.593Z" fill="#E8947E"/>
<path d="M320.262 113.884C328.945 115.237 337.728 115.818 346.51 115.621C347.15 115.621 347.764 115.362 348.217 114.903C348.67 114.443 348.924 113.82 348.924 113.17C348.924 112.521 348.67 111.897 348.217 111.438C347.764 110.978 347.15 110.72 346.51 110.72C337.92 109.96 329.28 109.96 320.69 110.72C318.979 110.72 318.307 113.822 320.262 113.977V113.884Z" fill="#FBC580"/>
<path d="M409.181 85.2574C416.867 89.6151 424.926 93.2586 433.259 96.1434C435.856 96.9808 437.629 93.042 435.154 91.6464C427.207 87.7941 418.933 84.68 410.434 82.3421C410.028 82.1735 409.574 82.1751 409.17 82.3467C408.766 82.5183 408.446 82.8457 408.279 83.257C408.113 83.6683 408.115 84.1297 408.284 84.5397C408.453 84.9498 408.776 85.2749 409.181 85.4435V85.2574Z" fill="#FF7081"/>
<path d="M397.569 112.86V112.705C397.52 112.487 397.437 112.277 397.325 112.085C397.112 111.453 396.744 110.887 396.255 110.441C395.967 110.095 395.614 109.81 395.216 109.604H394.911L393.719 109.107C393.08 108.921 392.403 108.921 391.764 109.107C391.332 109.095 390.906 109.214 390.541 109.449C389.93 109.638 389.381 109.992 388.952 110.472L388.188 111.464L387.7 112.674C387.516 113.323 387.516 114.01 387.7 114.659C387.724 115.311 387.925 115.944 388.28 116.489C388.275 116.592 388.275 116.696 388.28 116.799C388.366 117.015 388.502 117.207 388.677 117.357L389.105 117.884L390.113 118.691C390.494 118.924 390.906 119.101 391.336 119.218V119.218C392.195 119.466 393.105 119.466 393.964 119.218C394.793 118.977 395.549 118.529 396.164 117.915C396.758 117.301 397.189 116.543 397.416 115.713C397.661 114.842 397.661 113.918 397.416 113.046L397.569 112.86Z" fill="#251A51"/>
<path d="M397.592 259.893V259.738C397.542 259.52 397.46 259.311 397.347 259.118C397.135 258.486 396.767 257.92 396.278 257.474C395.99 257.128 395.637 256.843 395.239 256.637H394.934L393.742 256.141C393.103 255.954 392.425 255.954 391.786 256.141C391.354 256.128 390.929 256.247 390.564 256.482C389.953 256.671 389.404 257.025 388.975 257.505L388.211 258.498L387.722 259.707C387.539 260.356 387.539 261.044 387.722 261.692C387.747 262.345 387.948 262.977 388.303 263.522C388.298 263.625 388.298 263.729 388.303 263.832C388.388 264.048 388.525 264.24 388.7 264.39L389.128 264.918L390.136 265.724C390.517 265.957 390.929 266.135 391.358 266.251V266.251C392.217 266.5 393.127 266.5 393.986 266.251C394.815 266.01 395.572 265.562 396.186 264.949C396.781 264.334 397.212 263.576 397.439 262.747C397.684 261.875 397.684 260.951 397.439 260.079L397.592 259.893Z" fill="#251A51"/>
<path d="M46.8144 246.656C48.1644 246.656 49.2589 245.545 49.2589 244.175C49.2589 242.804 48.1644 241.693 46.8144 241.693C45.4643 241.693 44.3699 242.804 44.3699 244.175C44.3699 245.545 45.4643 246.656 46.8144 246.656Z" fill="#251A51"/>
<path d="M94.3293 198.149C95.6793 198.149 96.7738 197.038 96.7738 195.668C96.7738 194.297 95.6793 193.187 94.3293 193.187C92.9792 193.187 91.8848 194.297 91.8848 195.668C91.8848 197.038 92.9792 198.149 94.3293 198.149Z" fill="#251A51"/>
<path d="M55.4008 210.586C56.7508 210.586 57.8453 209.475 57.8453 208.105C57.8453 206.735 56.7508 205.624 55.4008 205.624C54.0507 205.624 52.9563 206.735 52.9563 208.105C52.9563 209.475 54.0507 210.586 55.4008 210.586Z" fill="#251A51"/>
<path d="M62.3371 235.739C63.6871 235.739 64.7816 234.628 64.7816 233.257C64.7816 231.887 63.6871 230.776 62.3371 230.776C60.987 230.776 59.8926 231.887 59.8926 233.257C59.8926 234.628 60.987 235.739 62.3371 235.739Z" fill="#251A51"/>
<path d="M152.662 220.264C154.012 220.264 155.106 219.153 155.106 217.783C155.106 216.413 154.012 215.302 152.662 215.302C151.311 215.302 150.217 216.413 150.217 217.783C150.217 219.153 151.311 220.264 152.662 220.264Z" fill="#251A51"/>
<path d="M102.365 280.648C103.715 280.648 104.81 279.537 104.81 278.167C104.81 276.796 103.715 275.686 102.365 275.686C101.015 275.686 99.9209 276.796 99.9209 278.167C99.9209 279.537 101.015 280.648 102.365 280.648Z" fill="#251A51"/>
<path d="M85.2238 265.172C86.5739 265.172 87.6683 264.061 87.6683 262.691C87.6683 261.321 86.5739 260.21 85.2238 260.21C83.8737 260.21 82.7793 261.321 82.7793 262.691C82.7793 264.061 83.8737 265.172 85.2238 265.172Z" fill="#251A51"/>
<path d="M110.799 259.216C112.149 259.216 113.243 258.105 113.243 256.735C113.243 255.365 112.149 254.254 110.799 254.254C109.449 254.254 108.354 255.365 108.354 256.735C108.354 258.105 109.449 259.216 110.799 259.216Z" fill="#251A51"/>
<path d="M104.291 295.844C105.641 295.844 106.735 294.733 106.735 293.363C106.735 291.993 105.641 290.882 104.291 290.882C102.941 290.882 101.846 291.993 101.846 293.363C101.846 294.733 102.941 295.844 104.291 295.844Z" fill="#251A51"/>
<path d="M81.5571 288.928C82.9071 288.928 84.0016 287.817 84.0016 286.447C84.0016 285.077 82.9071 283.966 81.5571 283.966C80.207 283.966 79.1125 285.077 79.1125 286.447C79.1125 287.817 80.207 288.928 81.5571 288.928Z" fill="#251A51"/>
<path d="M100.471 235.336C101.821 235.336 102.916 234.225 102.916 232.855C102.916 231.485 101.821 230.374 100.471 230.374C99.121 230.374 98.0266 231.485 98.0266 232.855C98.0266 234.225 99.121 235.336 100.471 235.336Z" fill="#251A51"/>
<path d="M124.152 275.965C125.502 275.965 126.597 274.854 126.597 273.484C126.597 272.114 125.502 271.003 124.152 271.003C122.802 271.003 121.708 272.114 121.708 273.484C121.708 274.854 122.802 275.965 124.152 275.965Z" fill="#251A51"/>
<path d="M121.433 299.721C122.783 299.721 123.878 298.61 123.878 297.24C123.878 295.87 122.783 294.759 121.433 294.759C120.083 294.759 118.989 295.87 118.989 297.24C118.989 298.61 120.083 299.721 121.433 299.721Z" fill="#251A51"/>
<path d="M127.544 240.856C128.894 240.856 129.989 239.745 129.989 238.375C129.989 237.004 128.894 235.894 127.544 235.894C126.194 235.894 125.1 237.004 125.1 238.375C125.1 239.745 126.194 240.856 127.544 240.856Z" fill="#251A51"/>
<path d="M108.63 218.184C109.98 218.184 111.074 217.073 111.074 215.703C111.074 214.333 109.98 213.222 108.63 213.222C107.28 213.222 106.185 214.333 106.185 215.703C106.185 217.073 107.28 218.184 108.63 218.184Z" fill="#251A51"/>
<path d="M126.75 195.39C128.1 195.39 129.194 194.279 129.194 192.909C129.194 191.539 128.1 190.428 126.75 190.428C125.4 190.428 124.305 191.539 124.305 192.909C124.305 194.279 125.4 195.39 126.75 195.39Z" fill="#251A51"/>
<path d="M155.595 202.584C156.945 202.584 158.039 201.474 158.039 200.103C158.039 198.733 156.945 197.622 155.595 197.622C154.245 197.622 153.15 198.733 153.15 200.103C153.15 201.474 154.245 202.584 155.595 202.584Z" fill="#251A51"/>
<path d="M0 0H501V411H0V0Z" fill="#FBF1F1"/>
<g clip-path="url(#clip0_144_278)">
<path d="M450.914 313.495C450.914 313.495 98.6948 321.462 33.056 323.935C27.321 324.151 25.3045 328.479 29.2086 332.685C43.76 348.363 84.0237 380.882 166.254 378.604C274.317 375.61 455.688 370.488 450.914 313.495Z" fill="#DDD2F3"/>
<path d="M221.406 121.667C209.399 126.032 213.594 112.361 213.377 106.554C213.545 100.729 212.701 94.9205 210.882 89.3836C208.965 85.1632 205.312 81.4479 205.312 76.7946C205.891 73.3288 206.899 69.9482 208.314 66.7307C209.544 62.0054 208.314 56.9915 209.182 52.3022C210.101 47.7269 212.687 43.6534 216.441 40.8687C220.194 38.084 224.85 36.7856 229.507 37.2243C234.137 37.8375 238.585 40.2183 243.214 39.569C247.843 38.9197 251.966 34.6993 256.378 32.1022C259.463 30.2457 262.963 29.1845 266.562 29.0145C270.161 28.8444 273.746 29.5709 276.993 31.1283C280.204 32.7694 282.86 35.3173 284.628 38.4542C286.397 41.591 287.201 45.1778 286.938 48.7672C286.505 52.3293 284.868 55.6381 282.298 58.1491C279.728 60.6601 276.377 62.2236 272.798 62.5825C268.563 62.4409 264.378 61.6375 260.393 60.2018C258.414 59.504 256.31 59.227 254.218 59.3885C252.125 59.55 250.089 60.1465 248.241 61.1397C243.901 64.0975 242.021 70.9511 236.74 71.4561C233.981 71.1851 231.333 70.2303 229.037 68.6786C226.469 67.5604 222.889 67.3439 221.442 69.7247C219.996 72.1054 221.442 74.1614 221.442 76.47C221.931 78.4044 221.784 80.4442 221.022 82.2886C220.26 84.1331 218.924 85.6845 217.211 86.7143C215.692 98.2571 219.2 109.331 222.636 120.441" fill="#36383F"/>
<path d="M122.566 322.188L90.1611 141.471H194.355L232.943 318.798L122.566 322.188Z" fill="#B8ABD6"/>
<path d="M130.594 321.972L96.4539 141.471H200.647L239.2 318.798L130.594 321.972Z" fill="#DDD2F3"/>
<path opacity="0.44" d="M201.768 141.471C201.768 141.471 165.603 157.306 155.657 174.332C146.941 189.049 105.242 275.512 120.721 287.632C136.2 299.752 238.694 295.928 238.694 295.928L245.348 268.406L164.879 254.591L214.282 211.305L201.768 141.471Z" fill="#B8ABD6"/>
<path d="M291.966 185.333C291.387 183.566 287.409 145.33 247.012 146.268C209.11 147.17 188.025 149.334 174.68 178.732L188.749 234.318L191.678 320.276L300.935 316.669L291.966 185.333Z" fill="#EB6754"/>
<path d="M191.172 157.486C180.674 163.649 171.885 172.328 165.603 182.736C156.887 197.381 115.188 283.844 130.667 295.928C146.146 308.012 248.748 304.225 248.748 304.225L255.402 276.702L174.825 262.923L188.893 234.318L191.172 157.486Z" fill="#EB6754"/>
<path d="M272.002 152.688C272.002 152.688 310.591 178.516 350.807 245.681L334.533 285.359L292.147 231.685L272.002 152.688Z" fill="#EB6754"/>
<path d="M230.773 325.11H319.199L323.575 317.571L230.773 320.205V325.11Z" fill="#5483D7"/>
<path d="M253.558 286.55H289.724C289.724 286.55 311.893 306.245 308.06 307.219C304.226 308.193 290.7 294.846 290.7 294.846L301.08 317.571C301.08 317.571 285.239 315.407 280.067 311.114C274.896 306.822 270.122 303.467 270.122 303.467L249.507 305.379L253.558 286.55Z" fill="#FCD5D1"/>
<path d="M190.593 158.244H191.534C191.929 158.185 192.331 158.185 192.727 158.244C193.256 158.193 193.789 158.193 194.318 158.244C197.714 158.664 200.89 160.14 203.396 162.464C205.117 164.094 206.559 165.995 207.663 168.091C208.919 170.523 209.716 173.164 210.014 175.882C210.561 182.072 209.835 188.307 207.88 194.207C204.701 204.954 200.347 215.321 194.897 225.12C192.763 228.727 190.919 231.793 189.581 233.777C188.93 234.787 188.387 235.544 188.025 236.086C187.84 236.353 187.634 236.606 187.411 236.843C187.564 236.557 187.733 236.28 187.917 236.013L189.364 233.669C190.629 231.613 192.438 228.655 194.499 224.903C199.825 215.084 204.104 204.735 207.266 194.026C209.186 188.219 209.924 182.087 209.436 175.991C208.939 170.99 206.684 166.326 203.07 162.825C200.675 160.444 197.61 158.846 194.282 158.244C193.055 158.125 191.82 158.125 190.593 158.244V158.244Z" fill="#452775"/>
<path d="M286.577 180.896C286.689 181.134 286.751 181.392 286.758 181.654C286.758 182.231 286.975 182.953 287.12 183.89C287.445 185.874 287.879 188.616 288.386 191.97C289.507 198.896 290.989 208.347 292.653 218.735C294.317 229.124 295.619 238.719 296.27 245.609C296.667 249.216 296.884 251.849 297.029 253.797C297.029 254.699 297.029 255.456 297.029 256.033C297.029 256.61 297.029 256.791 297.029 256.791C297.006 256.539 297.006 256.285 297.029 256.033C297.029 255.456 297.029 254.735 296.776 253.797C296.776 251.885 296.27 249.107 295.836 245.681C294.932 238.791 293.521 229.304 291.93 218.844C290.338 208.383 288.819 198.932 287.843 192.043C287.373 188.435 286.975 185.838 286.758 183.89C286.758 182.989 286.758 182.267 286.541 181.69C286.536 181.425 286.548 181.16 286.577 180.896V180.896Z" fill="#452775"/>
<path opacity="0.65" d="M182.397 340.607C182.397 342.555 173.356 344.214 162.217 344.214C151.078 344.214 142 342.663 142 340.607C142 338.551 151.041 337 162.217 337C173.392 337 182.397 338.695 182.397 340.607Z" fill="#BE8D1F" fill-opacity="0.6"/>
<path d="M169.328 305.812C169.328 305.812 151.896 299.211 135.621 305.812V309.419C135.621 309.419 129.726 308.95 129.726 314.577C129.448 317.921 130.203 321.269 131.891 324.171C133.578 327.074 136.117 329.39 139.166 330.809L142.457 341.162C142.457 341.162 156.597 344.769 163.903 341.162C163.903 341.162 165.566 335.715 166.977 330.088C167.99 326.192 169.328 305.812 169.328 305.812ZM132.62 316.814C132.222 312.052 136.236 313.603 136.236 313.603L138.298 327.022C138.298 327.022 133.343 325.615 132.62 316.814Z" fill="#FBC580"/>
<path d="M166.977 306.209C157.453 304.058 147.568 304.058 138.044 306.209C142.141 309.506 147.247 311.304 152.511 311.304C157.775 311.304 162.88 309.506 166.977 306.209V306.209Z" fill="#D2A133"/>
<path d="M168.532 321.791C168.175 322.003 167.8 322.184 167.411 322.332C166.361 322.769 165.287 323.142 164.192 323.45C160.6 324.537 156.878 325.144 153.125 325.254C149.371 325.38 145.616 325.029 141.95 324.208C140.845 323.972 139.757 323.659 138.695 323.27C138.288 323.174 137.897 323.016 137.538 322.801C137.538 322.801 139.238 323.234 142.059 323.775C145.633 324.455 149.271 324.745 152.908 324.641C156.572 324.502 160.209 323.97 163.758 323.054C166.832 322.332 168.496 321.683 168.532 321.791Z" fill="#D2A133"/>
<path d="M167.737 318.509C167.417 318.761 167.064 318.967 166.688 319.123C165.681 319.634 164.642 320.08 163.578 320.457C160.085 321.686 156.428 322.391 152.728 322.549C148.966 322.661 145.21 322.199 141.589 321.179C140.496 320.895 139.421 320.545 138.37 320.133C138.048 320.023 137.733 319.89 137.43 319.736C137.43 319.736 139.129 320.241 141.878 320.89C145.434 321.705 149.081 322.056 152.728 321.936C156.413 321.782 160.062 321.139 163.578 320.024C166.109 319.159 167.7 318.401 167.737 318.509Z" fill="#D2A133"/>
<path d="M221.515 147.602C221.515 147.602 243.757 205.317 259.308 224.651C259.308 224.651 265.854 167.838 259.308 147.35C259.308 147.35 229.472 143.779 221.515 147.602Z" fill="#F9FAFD"/>
<path d="M217.79 53.9616L216.307 88.1212C216.307 88.1212 205.783 88.1212 205.783 97.644C205.637 99.1214 205.846 100.612 206.391 101.993C206.936 103.375 207.802 104.607 208.917 105.59C210.033 106.572 211.367 107.277 212.809 107.645C214.25 108.013 215.759 108.035 217.211 107.708C217.211 107.708 214.86 130.83 246.614 132.705C283.792 134.942 275.872 77.0112 274.425 49.7412L217.79 53.9616Z" fill="#FCD5D1"/>
<path d="M259.308 106.085L257.464 147.747C257.346 150.435 256.555 153.051 255.164 155.356C253.773 157.662 251.826 159.583 249.5 160.946C247.174 162.308 244.543 163.069 241.847 163.157C239.151 163.246 236.476 162.661 234.064 161.455H233.667C230.905 160.064 228.598 157.917 227.016 155.266C225.434 152.615 224.642 149.569 224.734 146.485C225.168 131.876 225.348 106.626 225.348 106.626L259.308 106.085Z" fill="#FCD5D1"/>
<path d="M259.308 224.651L258.548 224.002C258.078 223.605 257.391 222.955 256.523 222.09C254.751 220.43 252.256 217.941 249.29 214.875C246.324 211.809 242.635 208.058 238.44 204.054C236.185 202.037 234.059 199.881 232.075 197.597C229.922 195.136 228.462 192.148 227.844 188.94C227.294 186.319 227.678 183.59 228.929 181.221L229.399 181.582C228.808 182.054 228.106 182.369 227.359 182.495C226.612 182.621 225.845 182.555 225.131 182.303C223.75 181.878 222.553 181.001 221.732 179.814C220.464 177.531 219.816 174.957 219.851 172.347C219.598 167.514 219.381 163.221 219.164 159.614C218.947 156.007 218.875 153.193 218.766 151.137C218.766 150.163 218.766 149.406 218.766 148.829V148.035C218.809 148.298 218.809 148.566 218.766 148.829C218.766 149.406 218.766 150.163 218.766 151.101C218.766 153.157 219.128 156.043 219.381 159.578C219.634 163.113 219.887 167.478 220.213 172.311C220.161 174.834 220.785 177.324 222.021 179.525C222.759 180.599 223.844 181.389 225.095 181.762C225.702 181.966 226.35 182.017 226.981 181.91C227.612 181.803 228.207 181.541 228.712 181.149L230.086 179.958L229.182 181.545C228.019 183.761 227.661 186.311 228.169 188.76C228.816 191.872 230.275 194.759 232.401 197.128C234.367 199.415 236.468 201.584 238.693 203.621C242.816 207.625 246.361 211.413 249.543 214.443L256.776 221.837L258.765 223.821C259.091 224.398 259.344 224.615 259.308 224.651Z" fill="#452775"/>
<path d="M259.308 147.351L259.778 147.711L261.08 148.938C262.672 150.461 264.092 152.154 265.312 153.988C266.179 155.259 266.964 156.584 267.662 157.956C268.544 159.537 269.19 161.238 269.579 163.006C270.052 164.979 270.126 167.027 269.796 169.029C269.422 171.256 268.404 173.325 266.867 174.981V174.548C267.964 175.842 268.711 177.394 269.037 179.057C269.273 180.769 269.273 182.504 269.037 184.216C268.784 187.101 268.169 189.807 267.699 192.476C267.228 195.145 266.686 197.67 266.18 200.087C265.167 204.921 264.118 209.285 263.214 212.892C262.31 216.499 261.478 219.457 260.863 221.441L260.393 223.786C260.393 224.327 260.14 224.616 260.104 224.579C260.181 224.308 260.278 224.043 260.393 223.786C260.393 223.173 260.719 222.379 260.972 221.441C261.478 219.385 262.238 216.463 263.106 212.82C263.973 209.177 264.95 204.848 265.926 200.015C266.433 197.598 266.939 195.037 267.409 192.404C267.879 189.771 268.458 186.993 268.747 184.179C268.966 182.527 268.966 180.854 268.747 179.202C268.455 177.653 267.756 176.209 266.722 175.017V174.801L266.939 174.584C268.411 173.043 269.381 171.094 269.724 168.993C270.106 167.064 270.106 165.079 269.724 163.15C269.346 161.424 268.725 159.76 267.879 158.208C267.217 156.84 266.468 155.514 265.637 154.24C264.447 152.413 263.091 150.698 261.587 149.118L260.357 147.856L259.308 147.351Z" fill="#452775"/>
<path d="M263.033 286.55C263.033 286.55 261.768 272.771 260.574 255.745C259.381 238.72 258.621 224.868 258.802 224.868C258.983 224.868 260.068 238.647 261.225 255.709C262.382 272.771 263.214 286.55 263.033 286.55Z" fill="#452775"/>
<path d="M268.566 241.352C268.85 241.274 269.15 241.274 269.434 241.352C270.218 241.466 270.942 241.834 271.496 242.398C271.886 242.853 272.149 243.404 272.257 243.993C272.365 244.582 272.314 245.189 272.111 245.753C271.828 246.466 271.325 247.07 270.675 247.479C270.025 247.888 269.261 248.079 268.494 248.025C267.748 247.959 267.041 247.663 266.471 247.178C265.901 246.693 265.496 246.044 265.311 245.32C265.119 244.759 265.067 244.16 265.162 243.575C265.256 242.99 265.494 242.437 265.854 241.965C266.1 241.649 266.412 241.389 266.767 241.202C267.123 241.015 267.514 240.907 267.915 240.883C268.205 240.849 268.498 240.912 268.747 241.064H267.952C267.604 241.118 267.271 241.241 266.972 241.427C266.674 241.613 266.417 241.858 266.216 242.146C265.937 242.573 265.759 243.059 265.696 243.565C265.634 244.071 265.688 244.585 265.854 245.067C266.04 245.663 266.395 246.191 266.877 246.588C267.358 246.985 267.945 247.234 268.566 247.304C269.179 247.354 269.791 247.205 270.313 246.88C270.834 246.555 271.236 246.071 271.46 245.5C271.644 245.023 271.7 244.506 271.624 244C271.548 243.495 271.342 243.017 271.026 242.615C270.579 242.06 269.952 241.677 269.254 241.532C268.892 241.388 268.603 241.424 268.566 241.352Z" fill="#452775"/>
<path d="M270.556 265.845C270.556 265.845 270.845 265.845 271.387 265.845C272.184 265.916 272.922 266.291 273.449 266.891C273.889 267.401 274.167 268.03 274.248 268.698C274.328 269.366 274.207 270.043 273.901 270.643C273.595 271.242 273.116 271.737 272.527 272.065C271.938 272.392 271.264 272.538 270.592 272.482C269.844 272.425 269.132 272.137 268.556 271.659C267.979 271.181 267.566 270.536 267.373 269.813C267.18 269.252 267.129 268.653 267.223 268.068C267.318 267.483 267.556 266.93 267.915 266.458C268.165 266.145 268.477 265.887 268.832 265.701C269.187 265.515 269.577 265.404 269.977 265.376C270.556 265.376 270.845 265.376 270.809 265.376C270.544 265.359 270.278 265.359 270.013 265.376C269.314 265.493 268.689 265.882 268.277 266.458C267.977 266.933 267.799 267.476 267.761 268.036C267.723 268.597 267.825 269.158 268.058 269.669C268.291 270.181 268.648 270.626 269.097 270.966C269.545 271.306 270.071 271.53 270.628 271.616C271.241 271.672 271.856 271.526 272.379 271.2C272.901 270.875 273.303 270.387 273.521 269.813C273.71 269.338 273.773 268.823 273.703 268.318C273.633 267.812 273.434 267.333 273.123 266.927C272.664 266.387 272.043 266.008 271.351 265.845C270.845 265.881 270.556 265.917 270.556 265.845Z" fill="#452775"/>
<path d="M268.06 243.336C268.095 243.403 268.113 243.477 268.113 243.552C268.113 243.628 268.095 243.702 268.06 243.769C268.013 243.837 267.947 243.89 267.87 243.922C267.793 243.954 267.708 243.964 267.626 243.949C267.589 243.919 267.558 243.88 267.537 243.836C267.516 243.793 267.505 243.745 267.505 243.696C267.505 243.648 267.516 243.6 267.537 243.557C267.558 243.513 267.589 243.474 267.626 243.444C267.626 243.191 267.952 243.191 268.06 243.336Z" fill="#452775"/>
<path d="M269.796 244.707C269.827 244.734 269.851 244.767 269.868 244.805C269.885 244.842 269.894 244.883 269.894 244.924C269.894 244.964 269.885 245.005 269.868 245.042C269.851 245.08 269.827 245.113 269.796 245.14C269.736 245.193 269.659 245.223 269.579 245.223C269.499 245.223 269.422 245.193 269.362 245.14C269.315 245.077 269.29 245.002 269.29 244.924C269.29 244.845 269.315 244.77 269.362 244.707C269.389 244.676 269.422 244.652 269.46 244.635C269.497 244.618 269.538 244.609 269.579 244.609C269.62 244.609 269.66 244.618 269.698 244.635C269.735 244.652 269.769 244.676 269.796 244.707Z" fill="#452775"/>
<path d="M269.796 267.685C269.865 267.758 269.903 267.855 269.903 267.955C269.903 268.056 269.865 268.152 269.796 268.226C269.719 268.287 269.623 268.321 269.525 268.321C269.426 268.321 269.33 268.287 269.253 268.226C269.192 268.149 269.158 268.054 269.158 267.955C269.158 267.857 269.192 267.762 269.253 267.685C269.253 267.685 269.687 267.577 269.796 267.685Z" fill="#452775"/>
<path d="M271.785 269.596C271.785 269.596 271.785 269.993 271.604 270.173C271.424 270.353 271.134 270.389 271.026 270.173C270.917 269.956 271.026 269.776 271.026 269.596C271.026 269.415 271.677 269.451 271.785 269.596Z" fill="#452775"/>
<path d="M254.679 277.893C254.679 277.893 253.63 285.107 251.93 293.836C250.23 302.565 248.675 309.635 248.314 309.599C247.952 309.563 249.399 302.385 251.098 293.692C252.798 284.999 254.534 277.893 254.679 277.893Z" fill="#452775"/>
<path d="M241.298 276.125C241.298 276.125 240.104 283.159 238.26 291.744C236.415 300.329 234.643 307.255 234.643 307.219C234.643 307.183 235.837 300.185 237.681 291.6C239.525 283.015 241.117 276.089 241.298 276.125Z" fill="#452775"/>
<path d="M255.728 278.253C255.728 278.433 241.261 275.764 223.179 272.337C205.096 268.911 190.629 265.953 190.81 265.772C190.991 265.592 205.277 268.261 223.359 271.688C241.442 275.115 255.764 278.073 255.728 278.253Z" fill="#452775"/>
<path d="M248.495 309.239C248.495 309.239 235.837 308.554 220.213 307.291C204.589 306.029 191.968 304.91 191.968 304.73C191.968 304.55 204.662 305.451 220.285 306.678C235.909 307.904 248.531 309.059 248.495 309.239Z" fill="#452775"/>
<path d="M264.986 317.932C264.253 315.742 263.839 313.458 263.756 311.15C263.411 308.867 263.411 306.544 263.756 304.261C263.756 304.261 263.756 307.327 264.19 311.078C264.624 314.83 265.203 317.896 264.986 317.932Z" fill="#452775"/>
<path d="M287.372 207.229C284.568 207.772 281.727 208.109 278.874 208.239C276.015 208.544 273.14 208.665 270.266 208.6C273.08 208.041 275.934 207.703 278.801 207.59C281.646 207.264 284.51 207.143 287.372 207.229V207.229Z" fill="#452775"/>
<path d="M341.115 270.967C341.115 270.967 329.976 257.837 316.558 241.352C303.141 224.867 292.364 211.449 292.508 211.341C292.653 211.232 303.792 224.507 317.065 240.955C330.338 257.404 341.26 270.858 341.115 270.967Z" fill="#452775"/>
<path d="M199.707 267.071C199.707 267.071 198.658 256.971 197.754 244.455C196.85 231.938 196.235 221.838 196.416 221.802C196.597 221.766 197.465 231.938 198.369 244.419C199.273 256.899 199.852 267.071 199.707 267.071Z" fill="#452775"/>
<path d="M204.915 319.915C203.774 317.776 203.062 315.436 202.817 313.026C202.339 310.645 202.339 308.193 202.817 305.812C202.817 305.812 202.817 309.022 203.36 313.026C203.902 317.03 205.096 319.843 204.915 319.915Z" fill="#452775"/>
<path d="M223.07 147.026L223.974 136.781L244.408 152.689L249.507 160.913L258.657 139.667L260.899 142.625V155.502L251.026 167.514L232.364 165.891L223.07 147.026Z" fill="#F9FAFD"/>
<path d="M243.54 153.952C243.586 154.371 243.586 154.795 243.54 155.214C243.54 156.116 243.54 157.27 243.287 158.821C243.033 161.887 242.708 166.036 242.31 170.761V171.482L241.84 170.905L237.283 165.422L226.65 152.365L223.504 148.361C223.078 147.897 222.702 147.389 222.383 146.846C222.861 147.259 223.297 147.718 223.685 148.216C224.553 149.226 225.638 150.525 227.012 152.076C229.797 155.395 233.594 159.94 237.862 165.026L242.31 170.364L241.768 170.545C242.274 165.819 242.672 161.707 242.997 158.641C242.997 157.234 243.287 156.116 243.395 155.034C243.41 154.67 243.459 154.307 243.54 153.952V153.952Z" fill="#C7CDDD"/>
<path d="M260.646 154.961C260.742 155.643 260.742 156.335 260.646 157.017C260.646 158.28 260.321 160.119 260.031 162.248L259.851 163.546L259.344 162.464C258.983 161.346 258.621 160.119 258.295 158.857C257.607 156.25 257.1 153.598 256.777 150.921C256.582 149.851 256.509 148.762 256.56 147.675C256.875 148.71 257.093 149.773 257.211 150.849C257.572 152.797 258.078 155.538 258.838 158.496C259.163 159.759 259.525 160.985 259.851 162.103H259.272C259.561 160.011 259.887 158.208 260.104 156.909C260.187 156.237 260.369 155.58 260.646 154.961V154.961Z" fill="#C7CDDD"/>
<path d="M259.308 224.651C259.308 224.651 259.308 224.435 259.308 224.002C259.308 223.569 259.091 222.884 258.982 222.126C258.693 220.431 258.331 218.086 257.861 215.273C256.993 209.357 255.8 201.385 254.498 192.548C253.196 183.71 251.966 175.702 251.098 169.823C250.664 166.973 250.303 164.665 250.05 162.933C250.05 162.176 249.833 161.562 249.76 161.057C249.688 160.552 249.76 160.408 249.76 160.408C249.76 160.408 249.76 160.625 249.76 161.057C249.76 161.49 249.977 162.14 250.158 162.897C250.447 164.52 250.881 166.865 251.388 169.751C252.4 175.558 253.666 183.566 255.004 192.44C256.342 201.313 257.427 209.357 258.187 215.201C258.585 218.05 258.874 220.395 259.091 222.09C259.091 222.848 259.272 223.497 259.308 223.966C259.34 224.193 259.34 224.424 259.308 224.651V224.651Z" fill="#C7CDDD"/>
<path d="M240.683 163.583C240.683 163.583 240.683 164.088 240.357 164.52C240.032 164.953 239.96 165.314 239.779 165.278C239.598 165.242 239.489 164.737 239.779 164.196C240.068 163.655 240.61 163.438 240.683 163.583Z" fill="#C7CDDD"/>
<path d="M259.489 156.765C259.489 156.765 259.2 156.296 259.2 155.719C259.2 155.142 259.2 154.673 259.561 154.673C259.923 154.673 259.851 155.178 259.851 155.755C259.851 156.332 259.67 156.765 259.489 156.765Z" fill="#C7CDDD"/>
<path d="M256.777 148.361C256.186 150.66 255.234 152.851 253.956 154.854C252.807 156.97 251.316 158.884 249.543 160.517C249.543 160.517 251.316 157.884 253.16 154.529C255.005 151.174 256.523 148.289 256.777 148.361Z" fill="#C7CDDD"/>
<path d="M249.977 161.274C248.608 160.446 247.386 159.398 246.361 158.172C245.195 157.135 244.206 155.917 243.431 154.564C244.671 155.53 245.809 156.618 246.831 157.811C247.985 158.866 249.038 160.025 249.977 161.274V161.274Z" fill="#C7CDDD"/>
<path d="M255.294 179.922C255.294 179.922 254.788 179.67 254.751 179.165C254.715 178.66 254.751 178.371 254.751 178.263C254.751 178.155 255.222 178.552 255.294 179.057C255.366 179.562 255.439 179.814 255.294 179.922Z" fill="#C7CDDD"/>
<path d="M257.174 192.115C257.174 192.115 256.776 191.754 256.776 191.321C256.776 190.888 256.776 190.455 256.993 190.419C257.21 190.383 257.355 190.78 257.391 191.249C257.427 191.718 257.355 192.115 257.174 192.115Z" fill="#C7CDDD"/>
<path d="M251.46 102.009C251.46 102.009 251.677 102.478 252.4 102.839C252.892 103.099 253.456 103.191 254.005 103.1C254.554 103.009 255.058 102.739 255.438 102.334C255.987 101.792 256.364 101.103 256.523 100.35C256.75 99.43 256.835 98.4814 256.776 97.5361C256.776 95.5522 256.487 93.3879 256.342 91.1515C256.053 86.6065 255.836 82.4944 255.691 79.5004C255.691 78.0215 255.691 76.7951 255.691 75.8933C255.652 75.4613 255.652 75.0267 255.691 74.5947C255.691 74.5947 255.691 75.0637 255.908 75.8933C256.125 76.7229 256.125 77.9133 256.234 79.5004C256.487 82.4944 256.776 86.7147 257.066 91.1515C257.066 93.3879 257.355 95.5522 257.463 97.5361C257.516 98.5072 257.419 99.4805 257.174 100.422C256.954 101.251 256.502 102.002 255.872 102.586C255.348 103.096 254.651 103.392 253.919 103.416C253.381 103.425 252.852 103.274 252.4 102.983C252.183 102.898 251.986 102.766 251.824 102.598C251.661 102.43 251.537 102.229 251.46 102.009Z" fill="#E08F8D"/>
<path d="M244.986 114.813C244.986 114.813 245.312 113.948 246.469 112.974C247.972 111.665 249.899 110.943 251.894 110.943C253.889 110.943 255.816 111.665 257.319 112.974C257.964 113.456 258.464 114.104 258.766 114.85C258.766 114.85 258.151 114.164 257.03 113.335C255.57 112.229 253.798 111.611 251.966 111.567C250.135 111.579 248.353 112.159 246.867 113.226C245.601 114.164 245.059 114.886 244.986 114.813Z" fill="#E08F8D"/>
<path d="M259.923 130C259.546 130.321 259.119 130.577 258.657 130.757C257.497 131.382 256.287 131.913 255.041 132.344C250.831 133.754 246.35 134.162 241.954 133.536C237.558 132.91 233.37 131.266 229.725 128.737C228.605 127.987 227.552 127.142 226.578 126.212C225.891 125.563 225.566 125.166 225.602 125.13C226.992 126.285 228.441 127.368 229.942 128.376C233.613 130.755 237.76 132.306 242.093 132.921C246.432 133.515 250.848 133.17 255.041 131.911C258.042 130.973 259.887 130 259.923 130Z" fill="#E08F8D"/>
<path d="M212.365 102.369C212.927 101.886 213.372 101.282 213.667 100.602C213.912 99.8642 213.912 99.0671 213.667 98.3294C213.519 97.909 213.238 97.5479 212.866 97.3007C212.494 97.0535 212.052 96.9335 211.606 96.9587C211.412 96.9808 211.227 97.0483 211.065 97.1556C210.904 97.2629 210.769 97.4069 210.674 97.5758C210.579 97.7448 210.525 97.9339 210.517 98.1276C210.509 98.3213 210.548 98.5141 210.629 98.6901L210.087 98.9066C209.698 97.273 209.468 95.6061 209.399 93.9287C209.961 95.5075 210.361 97.1391 210.593 98.7983L210.918 100.385L210.05 98.9787C209.913 98.718 209.842 98.4278 209.843 98.1333C209.843 97.8388 209.917 97.549 210.056 97.2892C210.195 97.0295 210.396 96.8076 210.641 96.6431C210.886 96.4786 211.167 96.3764 211.461 96.3455C212.078 96.2812 212.697 96.4483 213.197 96.8144C213.633 97.1443 213.96 97.5964 214.137 98.113C214.47 98.9594 214.47 99.8998 214.137 100.746C213.923 101.313 213.53 101.794 213.016 102.117C212.618 102.369 212.365 102.405 212.365 102.369Z" fill="#E08F8D"/>
<path d="M241.153 84.8382C240.791 84.8382 240.502 83.4675 240.502 81.7721C240.502 80.0768 240.755 78.7061 241.117 78.7061C241.478 78.7061 241.732 80.0768 241.768 81.7721C241.804 83.4675 241.515 84.8382 241.153 84.8382Z" fill="#452775"/>
<path d="M267.626 83.5762C267.301 83.5762 266.975 82.4219 266.939 81.0151C266.903 79.6083 267.156 78.418 267.518 78.418C267.879 78.418 268.169 79.5362 268.205 80.979C268.241 82.4219 267.807 83.5401 267.626 83.5762Z" fill="#452775"/>
<path d="M216.994 88.193C216.033 90.1954 215.84 92.4792 216.452 94.6137C217.32 96.6337 220.538 97.6077 221.732 95.768C222.106 94.9943 222.268 94.1356 222.202 93.2791C222.202 87.3634 222.202 81.4477 222.202 75.532C226.474 74.7125 230.432 72.7176 233.627 69.7727C236.823 66.8278 239.129 63.0503 240.285 58.867C242.569 60.2207 245.159 60.9769 247.814 61.0652C250.47 61.1535 253.105 60.571 255.474 59.372C257.218 58.0467 259.324 57.2796 261.514 57.1716C264.118 57.5323 265.637 60.2016 267.771 61.7166C268.72 62.3219 269.786 62.7221 270.899 62.8915C272.013 63.0609 273.15 62.9956 274.237 62.7C275.324 62.4043 276.337 61.8848 277.21 61.1749C278.083 60.465 278.798 59.5805 279.308 58.5784C280.043 56.3432 279.976 53.9223 279.119 51.7307C278.261 49.5392 276.665 47.7135 274.606 46.5666C269.507 43.5006 263.105 44.0777 257.21 44.7991L224.661 48.6227C222.509 48.7202 220.429 49.4203 218.658 50.6427C217.086 52.1417 216.003 54.077 215.547 56.1977C213.114 64.387 212.004 72.9102 212.256 81.4477C212.106 82.742 212.282 84.0534 212.768 85.2628C213.254 86.4722 214.036 87.5414 215.041 88.3734" fill="#36383F"/>
<path d="M244.733 72.5741C244.733 73.4399 243.07 74.522 240.611 74.9909C238.151 75.4599 236.018 74.9909 235.837 74.3056C235.656 73.6202 237.537 72.3577 239.996 71.8888C242.455 71.4199 244.589 71.7445 244.733 72.5741Z" fill="#36383F"/>
<path d="M270.628 72.2853C270.628 73.151 268.928 73.7281 267.011 73.6199C265.094 73.5117 263.395 72.646 263.612 71.7803C263.829 70.9146 265.311 70.3374 267.228 70.4456C269.145 70.5538 270.7 71.3474 270.628 72.2853Z" fill="#36383F"/>
<path d="M258.621 82.1328C257.72 82.4089 256.774 82.507 255.836 82.4214C254.91 82.5023 253.976 82.4043 253.087 82.1328C253.966 81.8151 254.907 81.704 255.836 81.8081C256.777 81.701 257.73 81.8121 258.621 82.1328V82.1328Z" fill="#635252"/>
<path d="M299.524 317.824C298.583 316.912 297.735 315.909 296.993 314.83C295.546 312.882 293.593 310.177 291.604 307.075C289.615 303.973 287.988 301.087 286.758 298.959C286.096 297.803 285.527 296.597 285.058 295.352C285.837 296.393 286.538 297.49 287.156 298.634C288.422 300.69 290.121 303.54 292.147 306.642C294.172 309.744 296.016 312.449 297.355 314.433C298.141 315.522 298.865 316.654 299.524 317.824V317.824Z" fill="#E08F8D"/>
<path d="M297.535 317.571C297.214 317.645 296.88 317.645 296.559 317.571C295.74 317.37 294.95 317.067 294.208 316.669C291.832 315.241 289.757 313.366 288.096 311.15C286.071 308.698 284.262 306.425 282.96 304.802C282.217 303.944 281.563 303.014 281.007 302.024C281.837 302.799 282.61 303.63 283.322 304.513C284.696 306.064 286.541 308.12 288.566 310.754C290.211 312.894 292.189 314.757 294.425 316.273C295.424 316.791 296.464 317.225 297.535 317.571V317.571Z" fill="#E08F8D"/>
<path d="M319.198 325.11L350.879 245.681L457.026 247.629L427.189 322.873L319.198 325.11Z" fill="#5483D7"/>
<path d="M355.762 245.753L323.321 325.11L427.189 322.874L457.026 247.629L355.762 245.753Z" fill="#7CABFF"/>
<path d="M389.83 280.995C390.939 279.658 392.53 278.807 394.26 278.625C395.991 278.442 397.724 278.944 399.089 280.021C400.178 281.378 400.686 283.11 400.503 284.839C400.321 286.567 399.461 288.155 398.112 289.255C397.631 290.015 396.985 290.657 396.221 291.133C395.458 291.61 394.597 291.909 393.702 292.008C392.806 292.108 391.9 292.005 391.05 291.708C390.2 291.411 389.428 290.927 388.792 290.291C388.155 289.656 387.669 288.886 387.371 288.038C387.073 287.191 386.97 286.287 387.07 285.394C387.17 284.501 387.47 283.642 387.948 282.881C388.425 282.119 389.069 281.475 389.83 280.995V280.995Z" fill="#D7D1E8"/>
<path opacity="0.19" d="M387.732 278.902C392.181 274.466 398.582 273.78 402.199 277.387C403.646 279.612 404.283 282.265 404.005 284.902C403.726 287.54 402.549 290.002 400.669 291.877C398.788 293.752 396.32 294.927 393.676 295.205C391.031 295.482 388.372 294.847 386.141 293.403C384.452 291.259 383.673 288.54 383.97 285.829C384.268 283.118 385.618 280.632 387.732 278.902V278.902Z" fill="#D2E1FF"/>
<g opacity="0.43">
<path d="M129.391 47.423C138.13 44.3284 147.71 44.5734 156.279 48.1108C164.849 51.6482 171.8 58.227 175.791 66.5769C179.195 75.1694 179.289 84.7141 176.058 93.3722C172.826 102.03 166.496 109.189 158.287 113.47C149.793 117.177 140.223 117.618 131.422 114.708C122.621 111.798 115.211 105.741 110.621 97.7065C106.593 89.3712 105.805 79.8426 108.41 70.9619C111.015 62.0813 116.828 54.4788 124.725 49.6233" fill="#FBF1F1"/>
</g>
<path d="M383.899 202.143C383.955 199.104 384.671 196.114 385.997 193.378C389.613 187.967 394.387 189.302 399.161 191.682C401.275 193.068 403.686 193.937 406.2 194.219C408.713 194.501 411.258 194.188 413.627 193.306C421.909 189.698 425.598 177.506 417.859 171.663C415.363 169.751 412.795 172.889 413.157 175.27C413.7 178.589 415.327 182.268 412.47 185.154C408.636 188.977 404.116 185.767 400.318 184.035C398.344 183.068 396.19 182.52 393.992 182.427C391.794 182.334 389.601 182.697 387.552 183.494C380.319 186.416 374.93 196.336 380.753 203.009C380.973 203.228 381.247 203.386 381.548 203.467C381.848 203.547 382.165 203.547 382.465 203.467C382.766 203.386 383.04 203.228 383.26 203.008C383.48 202.789 383.638 202.515 383.718 202.215L383.899 202.143Z" fill="#6E3281"/>
<path d="M401.15 78.3813C401.596 81.8082 402.944 85.0563 405.056 87.7959C406.358 89.7438 407.877 92.4131 410.228 93.2066C411.334 93.4826 412.494 93.4717 413.595 93.175C414.696 92.8783 415.703 92.3056 416.52 91.5113C420.137 89.0584 423.754 86.4613 427.37 83.9002C428.132 83.4096 428.68 82.6517 428.908 81.7766C429.136 80.9014 429.026 79.9729 428.6 79.1749C425.634 74.5577 422.632 69.9767 419.667 65.3956C419.174 64.6269 418.408 64.073 417.522 63.8455C416.636 63.6179 415.697 63.7336 414.893 64.1692C410.999 66.6178 407.277 69.3295 403.754 72.2852C401.005 74.9185 404.513 79.0306 407.732 77.4074C411.505 75.2457 415.13 72.8356 418.582 70.1931L413.808 68.9667L422.777 82.7099L424.007 77.9485C421.981 79.3913 419.956 80.7981 417.931 82.277C416.091 83.9462 414.093 85.4322 411.964 86.7138C411.276 86.7138 408.745 82.6017 408.058 81.8081C406.71 80.059 405.056 78.568 403.175 77.4074C402.971 77.2858 402.739 77.2204 402.502 77.218C402.264 77.2156 402.03 77.2763 401.824 77.3938C401.618 77.5113 401.447 77.6814 401.328 77.8866C401.21 78.0919 401.148 78.3248 401.15 78.5617V78.3813Z" fill="#FBC580"/>
<path d="M358.98 121.235C354.098 125.888 352.109 132.958 356.774 138.585C358.972 141.131 362.041 142.77 365.383 143.183C368.726 143.597 372.103 142.755 374.857 140.821C387.949 130.974 374.459 111.459 360.391 115.86C359.758 116.043 359.212 116.446 358.852 116.996C358.492 117.546 358.343 118.207 358.43 118.858C358.518 119.509 358.837 120.108 359.33 120.544C359.822 120.98 360.456 121.225 361.114 121.235C365.069 121.065 368.978 122.138 372.289 124.301C373.777 125.672 374.676 127.564 374.797 129.581C374.919 131.598 374.253 133.583 372.94 135.122C365.707 143.851 353.519 130.758 360.861 123.038C361.115 122.79 361.26 122.45 361.263 122.095C361.267 121.74 361.129 121.398 360.879 121.145C360.63 120.891 360.29 120.747 359.934 120.743C359.578 120.74 359.235 120.878 358.98 121.126V121.235Z" fill="#7CABFF"/>
<path d="M466.827 162.897C465.091 171.266 463.68 179.67 462.342 188.147C462.261 188.639 462.298 189.143 462.451 189.618C462.604 190.093 462.868 190.524 463.222 190.877C463.575 191.229 464.008 191.493 464.484 191.645C464.96 191.798 465.466 191.835 465.959 191.754C473.915 190.6 481.836 189.59 489.647 187.75C490.063 187.632 490.447 187.421 490.769 187.133C491.092 186.845 491.344 186.488 491.508 186.088C491.672 185.689 491.742 185.257 491.714 184.827C491.687 184.396 491.561 183.977 491.347 183.602C488.946 179.06 486.201 174.707 483.138 170.58C480.489 166.451 476.926 162.984 472.722 160.444C470.082 159.254 466.646 161.815 468.454 164.701C471.215 168.172 474.264 171.406 477.568 174.368C480.993 178.03 483.967 182.087 486.429 186.452L488.888 182.195C480.606 182.881 472.505 184.432 464.331 185.802L468.201 188.76C469.141 180.283 469.973 171.807 470.48 163.294C470.483 162.822 470.315 162.364 470.006 162.007C469.698 161.649 469.269 161.415 468.8 161.349C468.332 161.283 467.855 161.389 467.459 161.647C467.062 161.905 466.774 162.298 466.646 162.753L466.827 162.897Z" fill="#FF7081"/>
<path d="M447.081 144.826C449.271 136.435 450.58 127.84 450.986 119.179C450.986 116.005 445.959 115.211 445.308 118.422C443.743 126.926 443.076 135.57 443.319 144.213C443.388 144.612 443.582 144.98 443.874 145.262C444.166 145.544 444.54 145.726 444.943 145.782C445.345 145.839 445.755 145.766 446.113 145.574C446.472 145.383 446.76 145.083 446.936 144.718L447.081 144.826Z" fill="#E8947E"/>
<path d="M306.466 121.72C309.798 129.727 313.957 137.364 318.874 144.507C320.795 147.035 325.279 144.63 323.855 141.679C319.956 133.96 315.256 126.673 309.833 119.936C309.536 119.659 309.159 119.484 308.756 119.436C308.353 119.387 307.944 119.468 307.59 119.667C307.235 119.865 306.953 120.171 306.783 120.54C306.614 120.909 306.566 121.322 306.646 121.719L306.466 121.72Z" fill="#E8947E"/>
<path d="M476.7 110.341L476.519 109.872C476.369 109.439 476.107 109.054 475.76 108.754C475.54 108.512 475.284 108.305 475 108.141H474.711L473.879 107.78C473.43 107.654 472.954 107.654 472.505 107.78C472.19 107.779 471.88 107.853 471.601 107.997C471.18 108.155 470.797 108.401 470.48 108.718L469.937 109.44L469.612 110.269C469.485 110.717 469.485 111.192 469.612 111.64C469.633 112.099 469.77 112.546 470.009 112.939C470.016 113.035 470.016 113.131 470.009 113.227L470.299 113.588C470.383 113.728 470.48 113.861 470.588 113.985L471.311 114.526L472.179 114.886C472.793 115.067 473.446 115.067 474.06 114.886C474.633 114.716 475.155 114.406 475.579 113.985C476.007 113.543 476.314 113 476.472 112.406C476.63 111.813 476.634 111.189 476.483 110.594L476.7 110.341Z" fill="#E8947E"/>
<path d="M346.701 98.2665C346.497 97.8392 346.206 97.4585 345.848 97.1478L345.315 96.7216L344.729 96.2955L344.302 96.0291L343.076 95.4964C342.414 95.3098 341.713 95.3098 341.051 95.4964C340.596 95.3836 340.12 95.3836 339.665 95.4964C339.038 95.7163 338.471 96.0813 338.012 96.5618L337.213 97.6272L336.68 98.8524C336.493 99.5143 336.493 100.215 336.68 100.877C336.685 101.559 336.888 102.226 337.266 102.794L337.533 103.221L338.385 104.286C338.538 104.456 338.719 104.6 338.919 104.712C339.076 104.9 339.277 105.047 339.505 105.138V105.138L340.731 105.671C341.411 105.857 342.129 105.857 342.81 105.671C343.278 105.655 343.734 105.527 344.143 105.298C344.77 105.078 345.336 104.713 345.795 104.233L346.595 103.167L347.128 101.942C347.481 100.592 347.289 99.1574 346.595 97.9468L346.701 98.2665Z" fill="#251A51"/>
<path d="M481.015 232.486C480.811 232.059 480.52 231.678 480.162 231.368L479.629 230.941L479.043 230.515L478.616 230.249L477.39 229.716C476.728 229.53 476.027 229.53 475.365 229.716C474.91 229.603 474.434 229.603 473.979 229.716C473.352 229.936 472.785 230.301 472.326 230.782L471.527 231.847L470.994 233.072C470.807 233.734 470.807 234.435 470.994 235.096C470.999 235.779 471.202 236.445 471.58 237.014L471.847 237.44L472.699 238.506C472.852 238.676 473.033 238.82 473.232 238.932C473.39 239.12 473.591 239.266 473.819 239.358V239.358L475.045 239.891C475.725 240.076 476.443 240.076 477.124 239.891C477.591 239.874 478.048 239.747 478.457 239.518C479.084 239.298 479.65 238.933 480.109 238.452L480.909 237.387L481.442 236.162C481.795 234.812 481.603 233.377 480.909 232.167L481.015 232.486Z" fill="#251A51"/>
<ellipse cx="148.152" cy="280.567" rx="2.90493" ry="2.90494" fill="#251A51"/>
<ellipse cx="207.412" cy="246.87" rx="2.90492" ry="2.90494" fill="#251A51"/>
<circle cx="172.553" cy="206.201" r="2.90493" fill="#251A51"/>
<ellipse cx="148.152" cy="244.546" rx="2.90493" ry="2.90492" fill="#251A51"/>
<circle cx="201.602" cy="285.215" r="2.90493" fill="#251A51"/>
<circle cx="309.666" cy="207.363" r="2.90494" fill="#251A51"/>
<ellipse cx="228.327" cy="218.982" rx="2.90493" ry="2.90492" fill="#251A51"/>
<circle cx="286.426" cy="260.813" r="2.90494" fill="#251A51"/>
<circle cx="238.785" cy="261.975" r="2.90493" fill="#251A51"/>
<ellipse cx="279.454" cy="177.151" rx="2.90494" ry="2.90492" fill="#251A51"/>
<ellipse cx="198.116" cy="180.637" rx="2.90492" ry="2.90493" fill="#251A51"/>
<circle cx="219.032" cy="313.102" r="2.90492" fill="#251A51"/>
<ellipse cx="341.039" cy="241.06" rx="2.90492" ry="2.90493" fill="#251A51"/>
<ellipse cx="279.454" cy="228.278" rx="2.90494" ry="2.90493" fill="#251A51"/>
</g>
<defs>
<clipPath id="clip0_144_278">
<rect width="488.179" height="354.401" fill="white" transform="translate(0 29)"/>
</clipPath>
</defs>
</svg>
