<svg width="25" height="29" viewBox="0 0 25 29" fill="none" xmlns="http://www.w3.org/2000/svg">
<path d="M21.0801 28.8717C20.9194 29.0251 20.7167 28.9616 20.5351 28.9567C15.0901 28.8218 9.64321 28.8883 4.19729 28.8814C3.78897 28.8814 3.59829 28.7495 3.5294 28.3447C3.01227 25.4362 2.51909 22.5248 2.0908 19.6016C1.78531 17.5212 1.52175 15.4359 1.26717 13.3447C1.05253 11.5791 0.939718 9.80173 0.768004 8.03122C0.598953 6.28906 0.465842 4.54461 0.36867 2.79789C0.33273 2.1634 0.303784 1.52695 0.292802 0.893437C0.284815 0.348889 0.516425 0.117188 1.06251 0.117188C7.8299 0.117188 14.5979 0.119143 21.3667 0.123054C21.8439 0.357688 21.9407 0.53562 21.9197 1.03422C21.8299 3.23783 21.6865 5.43785 21.4895 7.63429C21.172 11.1313 20.8066 14.6244 20.3214 18.1049C19.8402 21.555 19.3021 24.9963 18.6352 28.4161C18.5803 28.6986 18.6881 28.7348 18.9237 28.7309C19.4469 28.7211 19.971 28.7231 20.4951 28.7309C20.6998 28.7407 20.9154 28.7113 21.0801 28.8717Z" fill="#7ACEF4"/>
<path d="M21.0802 28.8704C20.2705 28.8704 19.4609 28.8636 18.6512 28.8704C18.4106 28.8704 18.3777 28.8353 18.4426 28.584C18.775 27.3131 18.9357 26.0089 19.1653 24.7174C19.395 23.4259 19.5956 22.1306 19.7893 20.8342C19.978 19.5682 20.1457 18.2992 20.3154 17.0302C20.4742 15.8385 20.6369 14.6467 20.7737 13.4511C20.8935 12.4089 20.9733 11.3618 21.0792 10.3177C21.198 9.12009 21.3287 7.92345 21.4426 6.72584C21.4865 6.26439 21.5045 5.80099 21.5424 5.33856C21.6422 3.98159 21.6422 2.61583 21.77 1.26081C21.8139 0.77199 21.747 0.421994 21.3707 0.123813C22.2452 0.123813 23.1188 0.111103 23.9923 0.123813C24.5045 0.123813 24.8748 0.527579 24.778 1.01347C24.6362 1.7203 24.6782 2.43594 24.6302 3.14473C24.4885 5.15183 24.3238 7.15307 24.155 9.16213C24.0372 10.566 23.8775 11.965 23.7387 13.366C23.6 14.767 23.3913 16.1572 23.2016 17.5513C22.978 19.1908 22.7604 20.8303 22.5028 22.4649C22.2302 24.1905 21.9148 25.9092 21.6153 27.6318C21.5683 27.9055 21.5154 28.1802 21.4555 28.451C21.4066 28.6515 21.3407 28.8489 21.0802 28.8704Z" fill="#77BCE8"/>
</svg>
